<svg xmlns="http://www.w3.org/2000/svg" viewBox="0 0 320 320"
       color="oklch(0.82 0.14 152)"
       style="background: radial-gradient(circle at 50% 60%, #07121a 0%, #03080d 75%)">
    <title>Crafting</title>
    <desc>Crafting as a constellation of its 16 jumps. One marker per jump.</desc>
    <defs>
      <linearGradient id="ray-grad" x1="0" y1="0" x2="1" y2="0">
        <stop offset="0"    stop-color="transparent"/>
        <stop offset="0.48" stop-color="#fff" stop-opacity="0.58"/>
        <stop offset="0.50" stop-color="#fff" stop-opacity="0.92"/>
        <stop offset="0.52" stop-color="#fff" stop-opacity="0.58"/>
        <stop offset="1"    stop-color="transparent"/>
      </linearGradient>
      <symbol id="star-mark" viewBox="-50 -50 100 100" overflow="visible">
        <g filter="drop-shadow(0 0 1px #fff) drop-shadow(0 0 3px currentColor)" opacity="0.76">
          <g opacity="0.68" style="mix-blend-mode:screen">
            <rect x="-32.00" y="-0.390" width="64.00" height="0.780" rx="0.390" fill="url(#ray-grad)" transform="rotate(-3.00)"/>
            <rect x="-32.00" y="-0.390" width="64.00" height="0.780" rx="0.390" fill="url(#ray-grad)" transform="rotate(63.00)"/>
            <rect x="-32.00" y="-0.390" width="64.00" height="0.780" rx="0.390" fill="url(#ray-grad)" transform="rotate(117.00)"/>
            <rect x="-32.00" y="-0.390" width="64.00" height="0.780" rx="0.390" fill="url(#ray-grad)" transform="rotate(183.00)"/>
            <rect x="-32.00" y="-0.390" width="64.00" height="0.780" rx="0.390" fill="url(#ray-grad)" transform="rotate(237.00)"/>
            <rect x="-32.00" y="-0.390" width="64.00" height="0.780" rx="0.390" fill="url(#ray-grad)" transform="rotate(303.00)"/>
          </g>
          <g opacity="0.32" style="mix-blend-mode:screen">
            <rect x="-18.00" y="-0.125" width="36.00" height="0.250" rx="0.125" fill="url(#ray-grad)" transform="rotate(27.00)"/>
            <rect x="-18.00" y="-0.125" width="36.00" height="0.250" rx="0.125" fill="url(#ray-grad)" transform="rotate(93.00)"/>
            <rect x="-18.00" y="-0.125" width="36.00" height="0.250" rx="0.125" fill="url(#ray-grad)" transform="rotate(147.00)"/>
            <rect x="-18.00" y="-0.125" width="36.00" height="0.250" rx="0.125" fill="url(#ray-grad)" transform="rotate(213.00)"/>
            <rect x="-18.00" y="-0.125" width="36.00" height="0.250" rx="0.125" fill="url(#ray-grad)" transform="rotate(267.00)"/>
            <rect x="-18.00" y="-0.125" width="36.00" height="0.250" rx="0.125" fill="url(#ray-grad)" transform="rotate(333.00)"/>
          </g>
          <circle r="2.2" fill="currentColor" opacity="0.16"/>
          <circle r="1.4" fill="#fff"/>
        </g>
      </symbol>
    </defs>

    <!-- Background starfield (deterministic seed-5 LCG, 60 dots). -->
    <g class="starfield">
      <circle cx="199.3" cy="237.4" r="0.9" fill="#fff" opacity="0.55"/>
      <circle cx="301.6" cy="236.8" r="0.9" fill="#fff" opacity="0.55"/>
      <circle cx="9.3" cy="149.0" r="0.9" fill="#fff" opacity="0.55"/>
      <circle cx="207.7" cy="288.3" r="0.5" fill="#fff" opacity="0.3"/>
      <circle cx="150.1" cy="78.9" r="0.9" fill="#fff" opacity="0.55"/>
      <circle cx="183.7" cy="4.2" r="0.5" fill="#fff" opacity="0.3"/>
      <circle cx="89.4" cy="293.2" r="0.9" fill="#fff" opacity="0.55"/>
      <circle cx="51.1" cy="255.1" r="0.5" fill="#fff" opacity="0.3"/>
      <circle cx="197.6" cy="40.5" r="0.5" fill="#fff" opacity="0.3"/>
      <circle cx="278.8" cy="67.0" r="0.5" fill="#fff" opacity="0.3"/>
      <circle cx="314.4" cy="279.2" r="0.5" fill="#fff" opacity="0.3"/>
      <circle cx="307.7" cy="172.6" r="0.9" fill="#fff" opacity="0.55"/>
      <circle cx="65.5" cy="301.1" r="0.9" fill="#fff" opacity="0.55"/>
      <circle cx="309.3" cy="286.0" r="0.5" fill="#fff" opacity="0.3"/>
      <circle cx="115.6" cy="53.1" r="0.5" fill="#fff" opacity="0.3"/>
      <circle cx="20.8" cy="96.4" r="0.9" fill="#fff" opacity="0.55"/>
      <circle cx="1.1" cy="216.9" r="0.5" fill="#fff" opacity="0.3"/>
      <circle cx="99.2" cy="261.9" r="0.9" fill="#fff" opacity="0.55"/>
      <circle cx="101.1" cy="154.0" r="0.9" fill="#fff" opacity="0.55"/>
      <circle cx="18.2" cy="312.0" r="0.5" fill="#fff" opacity="0.3"/>
      <circle cx="239.9" cy="270.4" r="0.5" fill="#fff" opacity="0.3"/>
      <circle cx="252.1" cy="117.2" r="0.9" fill="#fff" opacity="0.55"/>
      <circle cx="2.9" cy="15.0" r="0.5" fill="#fff" opacity="0.3"/>
      <circle cx="305.7" cy="62.9" r="0.9" fill="#fff" opacity="0.55"/>
      <circle cx="297.5" cy="301.5" r="0.5" fill="#fff" opacity="0.3"/>
      <circle cx="113.5" cy="167.9" r="0.9" fill="#fff" opacity="0.55"/>
      <circle cx="34.6" cy="239.5" r="0.9" fill="#fff" opacity="0.55"/>
      <circle cx="275.1" cy="11.7" r="0.9" fill="#fff" opacity="0.55"/>
      <circle cx="29.2" cy="109.0" r="0.9" fill="#fff" opacity="0.55"/>
      <circle cx="293.8" cy="108.8" r="0.9" fill="#fff" opacity="0.55"/>
      <circle cx="174.4" cy="100.0" r="0.5" fill="#fff" opacity="0.3"/>
      <circle cx="56.8" cy="25.0" r="0.5" fill="#fff" opacity="0.3"/>
      <circle cx="220.5" cy="319.0" r="0.5" fill="#fff" opacity="0.3"/>
      <circle cx="15.5" cy="315.7" r="0.9" fill="#fff" opacity="0.55"/>
      <circle cx="129.9" cy="75.9" r="0.9" fill="#fff" opacity="0.55"/>
      <circle cx="264.4" cy="145.8" r="0.5" fill="#fff" opacity="0.3"/>
      <circle cx="17.8" cy="293.1" r="0.5" fill="#fff" opacity="0.3"/>
      <circle cx="157.9" cy="268.3" r="0.5" fill="#fff" opacity="0.3"/>
      <circle cx="234.1" cy="303.9" r="0.9" fill="#fff" opacity="0.55"/>
      <circle cx="252.2" cy="34.1" r="0.5" fill="#fff" opacity="0.3"/>
      <circle cx="47.8" cy="270.3" r="0.5" fill="#fff" opacity="0.3"/>
      <circle cx="145.0" cy="319.8" r="0.9" fill="#fff" opacity="0.55"/>
      <circle cx="312.3" cy="145.1" r="0.9" fill="#fff" opacity="0.55"/>
      <circle cx="233.4" cy="153.3" r="0.5" fill="#fff" opacity="0.3"/>
      <circle cx="129.2" cy="46.9" r="0.5" fill="#fff" opacity="0.3"/>
      <circle cx="316.3" cy="307.1" r="0.9" fill="#fff" opacity="0.55"/>
      <circle cx="159.8" cy="108.3" r="0.5" fill="#fff" opacity="0.3"/>
      <circle cx="87.1" cy="250.2" r="0.9" fill="#fff" opacity="0.55"/>
      <circle cx="115.6" cy="251.5" r="0.9" fill="#fff" opacity="0.55"/>
      <circle cx="222.3" cy="212.5" r="0.9" fill="#fff" opacity="0.55"/>
      <circle cx="116.3" cy="225.4" r="0.5" fill="#fff" opacity="0.3"/>
      <circle cx="155.4" cy="246.3" r="0.9" fill="#fff" opacity="0.55"/>
      <circle cx="94.0" cy="302.6" r="0.9" fill="#fff" opacity="0.55"/>
      <circle cx="185.8" cy="3.7" r="0.9" fill="#fff" opacity="0.55"/>
      <circle cx="80.2" cy="214.9" r="0.9" fill="#fff" opacity="0.55"/>
      <circle cx="261.3" cy="207.2" r="0.9" fill="#fff" opacity="0.55"/>
      <circle cx="111.3" cy="206.1" r="0.9" fill="#fff" opacity="0.55"/>
      <circle cx="265.0" cy="112.0" r="0.9" fill="#fff" opacity="0.55"/>
      <circle cx="278.4" cy="220.3" r="0.9" fill="#fff" opacity="0.55"/>
      <circle cx="306.1" cy="165.8" r="0.9" fill="#fff" opacity="0.55"/>
    </g>

    <polyline class="cluster-outline" points="40.0,90.5 40.0,142.0 78.6,90.5 78.6,142.0 110.8,103.4 110.8,129.1 149.4,154.9 188.0,180.6 220.2,206.3 252.4,238.5 271.7,277.1 239.5,290.0 280.0,145.6 256.9,90.4 210.9,48.8 149.4,30.0 40.0,90.5"
              fill="none" stroke="currentColor" stroke-opacity="0.32"
              stroke-width="1.1" stroke-linejoin="round" stroke-linecap="round"/>

    <!-- One diffraction-spike marker per jump. -->
    <g class="jump-markers">
      <use href="#star-mark" x="25.0" y="75.5" width="30" height="30"/>
      <use href="#star-mark" x="25.0" y="127.0" width="30" height="30"/>
      <use href="#star-mark" x="63.6" y="75.5" width="30" height="30"/>
      <use href="#star-mark" x="63.6" y="127.0" width="30" height="30"/>
      <use href="#star-mark" x="95.8" y="88.4" width="30" height="30"/>
      <use href="#star-mark" x="95.8" y="114.1" width="30" height="30"/>
      <use href="#star-mark" x="134.4" y="139.9" width="30" height="30"/>
      <use href="#star-mark" x="173.0" y="165.6" width="30" height="30"/>
      <use href="#star-mark" x="205.2" y="191.3" width="30" height="30"/>
      <use href="#star-mark" x="237.4" y="223.5" width="30" height="30"/>
      <use href="#star-mark" x="256.7" y="262.1" width="30" height="30"/>
      <use href="#star-mark" x="224.5" y="275.0" width="30" height="30"/>
      <use href="#star-mark" x="265.0" y="130.6" width="30" height="30"/>
      <use href="#star-mark" x="241.9" y="75.4" width="30" height="30"/>
      <use href="#star-mark" x="195.9" y="33.8" width="30" height="30"/>
      <use href="#star-mark" x="134.4" y="15.0" width="30" height="30"/>
    </g>
  </svg>
