<svg xmlns="http://www.w3.org/2000/svg" viewBox="0 0 320 320"
       color="oklch(0.82 0.14 320)"
       style="background: radial-gradient(circle at 50% 60%, #07121a 0%, #03080d 75%)">
    <title>Clothing</title>
    <desc>Clothing as a constellation of its 12 jumps. One marker per jump.</desc>
    <defs>
      <linearGradient id="ray-grad" x1="0" y1="0" x2="1" y2="0">
        <stop offset="0"    stop-color="transparent"/>
        <stop offset="0.48" stop-color="#fff" stop-opacity="0.58"/>
        <stop offset="0.50" stop-color="#fff" stop-opacity="0.92"/>
        <stop offset="0.52" stop-color="#fff" stop-opacity="0.58"/>
        <stop offset="1"    stop-color="transparent"/>
      </linearGradient>
      <symbol id="star-mark" viewBox="-50 -50 100 100" overflow="visible">
        <g filter="drop-shadow(0 0 1px #fff) drop-shadow(0 0 3px currentColor)" opacity="0.76">
          <g opacity="0.68" style="mix-blend-mode:screen">
            <rect x="-32.00" y="-0.390" width="64.00" height="0.780" rx="0.390" fill="url(#ray-grad)" transform="rotate(-3.00)"/>
            <rect x="-32.00" y="-0.390" width="64.00" height="0.780" rx="0.390" fill="url(#ray-grad)" transform="rotate(63.00)"/>
            <rect x="-32.00" y="-0.390" width="64.00" height="0.780" rx="0.390" fill="url(#ray-grad)" transform="rotate(117.00)"/>
            <rect x="-32.00" y="-0.390" width="64.00" height="0.780" rx="0.390" fill="url(#ray-grad)" transform="rotate(183.00)"/>
            <rect x="-32.00" y="-0.390" width="64.00" height="0.780" rx="0.390" fill="url(#ray-grad)" transform="rotate(237.00)"/>
            <rect x="-32.00" y="-0.390" width="64.00" height="0.780" rx="0.390" fill="url(#ray-grad)" transform="rotate(303.00)"/>
          </g>
          <g opacity="0.32" style="mix-blend-mode:screen">
            <rect x="-18.00" y="-0.125" width="36.00" height="0.250" rx="0.125" fill="url(#ray-grad)" transform="rotate(27.00)"/>
            <rect x="-18.00" y="-0.125" width="36.00" height="0.250" rx="0.125" fill="url(#ray-grad)" transform="rotate(93.00)"/>
            <rect x="-18.00" y="-0.125" width="36.00" height="0.250" rx="0.125" fill="url(#ray-grad)" transform="rotate(147.00)"/>
            <rect x="-18.00" y="-0.125" width="36.00" height="0.250" rx="0.125" fill="url(#ray-grad)" transform="rotate(213.00)"/>
            <rect x="-18.00" y="-0.125" width="36.00" height="0.250" rx="0.125" fill="url(#ray-grad)" transform="rotate(267.00)"/>
            <rect x="-18.00" y="-0.125" width="36.00" height="0.250" rx="0.125" fill="url(#ray-grad)" transform="rotate(333.00)"/>
          </g>
          <circle r="2.2" fill="currentColor" opacity="0.16"/>
          <circle r="1.4" fill="#fff"/>
        </g>
      </symbol>
    </defs>

    <!-- Background starfield (deterministic seed-6 LCG, 60 dots). -->
    <g class="starfield">
      <circle cx="253.9" cy="263.0" r="0.9" fill="#fff" opacity="0.55"/>
      <circle cx="83.7" cy="0.1" r="0.9" fill="#fff" opacity="0.55"/>
      <circle cx="150.5" cy="243.1" r="0.5" fill="#fff" opacity="0.3"/>
      <circle cx="246.4" cy="87.3" r="0.9" fill="#fff" opacity="0.55"/>
      <circle cx="233.5" cy="132.5" r="0.9" fill="#fff" opacity="0.55"/>
      <circle cx="218.3" cy="61.8" r="0.9" fill="#fff" opacity="0.55"/>
      <circle cx="257.6" cy="85.0" r="0.9" fill="#fff" opacity="0.55"/>
      <circle cx="219.4" cy="270.2" r="0.5" fill="#fff" opacity="0.3"/>
      <circle cx="29.8" cy="256.1" r="0.9" fill="#fff" opacity="0.55"/>
      <circle cx="142.5" cy="30.0" r="0.5" fill="#fff" opacity="0.3"/>
      <circle cx="203.2" cy="93.2" r="0.9" fill="#fff" opacity="0.55"/>
      <circle cx="188.3" cy="64.3" r="0.9" fill="#fff" opacity="0.55"/>
      <circle cx="115.3" cy="298.5" r="0.9" fill="#fff" opacity="0.55"/>
      <circle cx="164.7" cy="206.3" r="0.9" fill="#fff" opacity="0.55"/>
      <circle cx="257.8" cy="312.4" r="0.5" fill="#fff" opacity="0.3"/>
      <circle cx="115.6" cy="192.6" r="0.5" fill="#fff" opacity="0.3"/>
      <circle cx="188.5" cy="28.7" r="0.9" fill="#fff" opacity="0.55"/>
      <circle cx="168.1" cy="37.4" r="0.9" fill="#fff" opacity="0.55"/>
      <circle cx="99.9" cy="62.8" r="0.9" fill="#fff" opacity="0.55"/>
      <circle cx="44.2" cy="67.2" r="0.9" fill="#fff" opacity="0.55"/>
      <circle cx="223.4" cy="4.0" r="0.9" fill="#fff" opacity="0.55"/>
      <circle cx="5.5" cy="106.5" r="0.9" fill="#fff" opacity="0.55"/>
      <circle cx="198.5" cy="98.0" r="0.5" fill="#fff" opacity="0.3"/>
      <circle cx="124.5" cy="40.6" r="0.9" fill="#fff" opacity="0.55"/>
      <circle cx="17.2" cy="135.3" r="0.9" fill="#fff" opacity="0.55"/>
      <circle cx="127.3" cy="313.9" r="0.5" fill="#fff" opacity="0.3"/>
      <circle cx="313.4" cy="285.5" r="0.9" fill="#fff" opacity="0.55"/>
      <circle cx="284.6" cy="143.1" r="0.9" fill="#fff" opacity="0.55"/>
      <circle cx="254.8" cy="165.3" r="0.9" fill="#fff" opacity="0.55"/>
      <circle cx="225.8" cy="130.9" r="0.5" fill="#fff" opacity="0.3"/>
      <circle cx="238.9" cy="85.1" r="0.9" fill="#fff" opacity="0.55"/>
      <circle cx="250.9" cy="55.1" r="0.5" fill="#fff" opacity="0.3"/>
      <circle cx="39.5" cy="188.6" r="0.5" fill="#fff" opacity="0.3"/>
      <circle cx="82.0" cy="144.5" r="0.9" fill="#fff" opacity="0.55"/>
      <circle cx="81.5" cy="131.4" r="0.9" fill="#fff" opacity="0.55"/>
      <circle cx="195.9" cy="85.7" r="0.9" fill="#fff" opacity="0.55"/>
      <circle cx="153.1" cy="45.5" r="0.5" fill="#fff" opacity="0.3"/>
      <circle cx="97.8" cy="257.5" r="0.5" fill="#fff" opacity="0.3"/>
      <circle cx="211.0" cy="310.6" r="0.9" fill="#fff" opacity="0.55"/>
      <circle cx="120.3" cy="193.0" r="0.5" fill="#fff" opacity="0.3"/>
      <circle cx="127.5" cy="156.2" r="0.9" fill="#fff" opacity="0.55"/>
      <circle cx="299.7" cy="93.1" r="0.5" fill="#fff" opacity="0.3"/>
      <circle cx="143.8" cy="18.3" r="0.5" fill="#fff" opacity="0.3"/>
      <circle cx="247.5" cy="35.9" r="0.9" fill="#fff" opacity="0.55"/>
      <circle cx="115.8" cy="300.3" r="0.9" fill="#fff" opacity="0.55"/>
      <circle cx="19.9" cy="61.6" r="0.9" fill="#fff" opacity="0.55"/>
      <circle cx="196.3" cy="135.1" r="0.9" fill="#fff" opacity="0.55"/>
      <circle cx="260.3" cy="157.3" r="0.9" fill="#fff" opacity="0.55"/>
      <circle cx="32.0" cy="115.8" r="0.5" fill="#fff" opacity="0.3"/>
      <circle cx="200.2" cy="194.1" r="0.5" fill="#fff" opacity="0.3"/>
      <circle cx="201.0" cy="31.1" r="0.5" fill="#fff" opacity="0.3"/>
      <circle cx="206.6" cy="148.1" r="0.9" fill="#fff" opacity="0.55"/>
      <circle cx="201.3" cy="224.4" r="0.5" fill="#fff" opacity="0.3"/>
      <circle cx="266.5" cy="26.7" r="0.9" fill="#fff" opacity="0.55"/>
      <circle cx="291.6" cy="290.5" r="0.9" fill="#fff" opacity="0.55"/>
      <circle cx="144.6" cy="222.0" r="0.9" fill="#fff" opacity="0.55"/>
      <circle cx="43.9" cy="301.9" r="0.9" fill="#fff" opacity="0.55"/>
      <circle cx="141.1" cy="249.1" r="0.5" fill="#fff" opacity="0.3"/>
      <circle cx="88.5" cy="228.0" r="0.5" fill="#fff" opacity="0.3"/>
      <circle cx="256.1" cy="313.0" r="0.5" fill="#fff" opacity="0.3"/>
    </g>

    <polyline class="cluster-outline" points="160.0,30.0 131.1,51.7 188.9,51.7 66.1,87.8 253.9,87.8 37.2,152.8 282.8,152.8 80.6,152.8 239.4,152.8 95.0,217.8 225.0,217.8 80.6,290.0 160.0,30.0"
              fill="none" stroke="currentColor" stroke-opacity="0.32"
              stroke-width="1.1" stroke-linejoin="round" stroke-linecap="round"/>

    <!-- One diffraction-spike marker per jump. -->
    <g class="jump-markers">
      <use href="#star-mark" x="145.0" y="15.0" width="30" height="30"/>
      <use href="#star-mark" x="116.1" y="36.7" width="30" height="30"/>
      <use href="#star-mark" x="173.9" y="36.7" width="30" height="30"/>
      <use href="#star-mark" x="51.1" y="72.8" width="30" height="30"/>
      <use href="#star-mark" x="238.9" y="72.8" width="30" height="30"/>
      <use href="#star-mark" x="22.2" y="137.8" width="30" height="30"/>
      <use href="#star-mark" x="267.8" y="137.8" width="30" height="30"/>
      <use href="#star-mark" x="65.6" y="137.8" width="30" height="30"/>
      <use href="#star-mark" x="224.4" y="137.8" width="30" height="30"/>
      <use href="#star-mark" x="80.0" y="202.8" width="30" height="30"/>
      <use href="#star-mark" x="210.0" y="202.8" width="30" height="30"/>
      <use href="#star-mark" x="65.6" y="275.0" width="30" height="30"/>
    </g>
  </svg>
