<svg xmlns="http://www.w3.org/2000/svg" viewBox="0 0 320 320"
       color="oklch(0.82 0.14 130)"
       style="background: radial-gradient(circle at 50% 60%, #07121a 0%, #03080d 75%)">
    <title>Personal Reality</title>
    <desc>Personal Reality as a constellation of its 1 jumps. One marker per jump.</desc>
    <defs>
      <linearGradient id="ray-grad" x1="0" y1="0" x2="1" y2="0">
        <stop offset="0"    stop-color="transparent"/>
        <stop offset="0.48" stop-color="#fff" stop-opacity="0.58"/>
        <stop offset="0.50" stop-color="#fff" stop-opacity="0.92"/>
        <stop offset="0.52" stop-color="#fff" stop-opacity="0.58"/>
        <stop offset="1"    stop-color="transparent"/>
      </linearGradient>
      <symbol id="star-mark" viewBox="-50 -50 100 100" overflow="visible">
        <g filter="drop-shadow(0 0 1px #fff) drop-shadow(0 0 3px currentColor)" opacity="0.76">
          <g opacity="0.68" style="mix-blend-mode:screen">
            <rect x="-32.00" y="-0.390" width="64.00" height="0.780" rx="0.390" fill="url(#ray-grad)" transform="rotate(-3.00)"/>
            <rect x="-32.00" y="-0.390" width="64.00" height="0.780" rx="0.390" fill="url(#ray-grad)" transform="rotate(63.00)"/>
            <rect x="-32.00" y="-0.390" width="64.00" height="0.780" rx="0.390" fill="url(#ray-grad)" transform="rotate(117.00)"/>
            <rect x="-32.00" y="-0.390" width="64.00" height="0.780" rx="0.390" fill="url(#ray-grad)" transform="rotate(183.00)"/>
            <rect x="-32.00" y="-0.390" width="64.00" height="0.780" rx="0.390" fill="url(#ray-grad)" transform="rotate(237.00)"/>
            <rect x="-32.00" y="-0.390" width="64.00" height="0.780" rx="0.390" fill="url(#ray-grad)" transform="rotate(303.00)"/>
          </g>
          <g opacity="0.32" style="mix-blend-mode:screen">
            <rect x="-18.00" y="-0.125" width="36.00" height="0.250" rx="0.125" fill="url(#ray-grad)" transform="rotate(27.00)"/>
            <rect x="-18.00" y="-0.125" width="36.00" height="0.250" rx="0.125" fill="url(#ray-grad)" transform="rotate(93.00)"/>
            <rect x="-18.00" y="-0.125" width="36.00" height="0.250" rx="0.125" fill="url(#ray-grad)" transform="rotate(147.00)"/>
            <rect x="-18.00" y="-0.125" width="36.00" height="0.250" rx="0.125" fill="url(#ray-grad)" transform="rotate(213.00)"/>
            <rect x="-18.00" y="-0.125" width="36.00" height="0.250" rx="0.125" fill="url(#ray-grad)" transform="rotate(267.00)"/>
            <rect x="-18.00" y="-0.125" width="36.00" height="0.250" rx="0.125" fill="url(#ray-grad)" transform="rotate(333.00)"/>
          </g>
          <circle r="2.2" fill="currentColor" opacity="0.16"/>
          <circle r="1.4" fill="#fff"/>
        </g>
      </symbol>
    </defs>

    <!-- Background starfield (deterministic seed-14 LCG, 60 dots). -->
    <g class="starfield">
      <circle cx="34.2" cy="224.8" r="0.9" fill="#fff" opacity="0.55"/>
      <circle cx="300.9" cy="86.8" r="0.5" fill="#fff" opacity="0.3"/>
      <circle cx="234.9" cy="210.7" r="0.5" fill="#fff" opacity="0.3"/>
      <circle cx="219.0" cy="126.9" r="0.9" fill="#fff" opacity="0.55"/>
      <circle cx="37.9" cy="71.4" r="0.9" fill="#fff" opacity="0.55"/>
      <circle cx="114.6" cy="83.3" r="0.9" fill="#fff" opacity="0.55"/>
      <circle cx="202.1" cy="47.9" r="0.9" fill="#fff" opacity="0.55"/>
      <circle cx="212.5" cy="52.8" r="0.9" fill="#fff" opacity="0.55"/>
      <circle cx="39.4" cy="107.9" r="0.5" fill="#fff" opacity="0.3"/>
      <circle cx="65.4" cy="313.0" r="0.5" fill="#fff" opacity="0.3"/>
      <circle cx="316.9" cy="140.4" r="0.9" fill="#fff" opacity="0.55"/>
      <circle cx="279.2" cy="219.8" r="0.5" fill="#fff" opacity="0.3"/>
      <circle cx="188.5" cy="202.8" r="0.5" fill="#fff" opacity="0.3"/>
      <circle cx="30.3" cy="279.9" r="0.9" fill="#fff" opacity="0.55"/>
      <circle cx="62.0" cy="144.8" r="0.5" fill="#fff" opacity="0.3"/>
      <circle cx="255.4" cy="160.2" r="0.5" fill="#fff" opacity="0.3"/>
      <circle cx="261.8" cy="28.7" r="0.5" fill="#fff" opacity="0.3"/>
      <circle cx="9.0" cy="236.9" r="0.5" fill="#fff" opacity="0.3"/>
      <circle cx="168.2" cy="29.8" r="0.9" fill="#fff" opacity="0.55"/>
      <circle cx="219.3" cy="171.2" r="0.9" fill="#fff" opacity="0.55"/>
      <circle cx="155.2" cy="139.9" r="0.9" fill="#fff" opacity="0.55"/>
      <circle cx="30.4" cy="151.8" r="0.5" fill="#fff" opacity="0.3"/>
      <circle cx="276.9" cy="300.5" r="0.5" fill="#fff" opacity="0.3"/>
      <circle cx="45.9" cy="225.1" r="0.9" fill="#fff" opacity="0.55"/>
      <circle cx="6.1" cy="225.6" r="0.9" fill="#fff" opacity="0.55"/>
      <circle cx="135.4" cy="111.2" r="0.9" fill="#fff" opacity="0.55"/>
      <circle cx="300.5" cy="84.3" r="0.5" fill="#fff" opacity="0.3"/>
      <circle cx="60.4" cy="201.1" r="0.9" fill="#fff" opacity="0.55"/>
      <circle cx="81.9" cy="124.1" r="0.5" fill="#fff" opacity="0.3"/>
      <circle cx="100.0" cy="314.5" r="0.9" fill="#fff" opacity="0.55"/>
      <circle cx="90.4" cy="299.6" r="0.5" fill="#fff" opacity="0.3"/>
      <circle cx="80.5" cy="11.2" r="0.5" fill="#fff" opacity="0.3"/>
      <circle cx="63.7" cy="73.6" r="0.9" fill="#fff" opacity="0.55"/>
      <circle cx="84.7" cy="79.6" r="0.9" fill="#fff" opacity="0.55"/>
      <circle cx="293.5" cy="93.2" r="0.9" fill="#fff" opacity="0.55"/>
      <circle cx="118.0" cy="179.6" r="0.9" fill="#fff" opacity="0.55"/>
      <circle cx="301.5" cy="242.3" r="0.9" fill="#fff" opacity="0.55"/>
      <circle cx="269.2" cy="117.3" r="0.5" fill="#fff" opacity="0.3"/>
      <circle cx="307.2" cy="174.7" r="0.9" fill="#fff" opacity="0.55"/>
      <circle cx="100.6" cy="292.9" r="0.9" fill="#fff" opacity="0.55"/>
      <circle cx="79.1" cy="298.8" r="0.9" fill="#fff" opacity="0.55"/>
      <circle cx="108.6" cy="84.1" r="0.5" fill="#fff" opacity="0.3"/>
      <circle cx="64.2" cy="221.5" r="0.5" fill="#fff" opacity="0.3"/>
      <circle cx="82.8" cy="143.2" r="0.9" fill="#fff" opacity="0.55"/>
      <circle cx="121.8" cy="251.2" r="0.5" fill="#fff" opacity="0.3"/>
      <circle cx="118.0" cy="136.0" r="0.5" fill="#fff" opacity="0.3"/>
      <circle cx="71.1" cy="46.9" r="0.9" fill="#fff" opacity="0.55"/>
      <circle cx="46.9" cy="213.8" r="0.5" fill="#fff" opacity="0.3"/>
      <circle cx="207.0" cy="210.1" r="0.5" fill="#fff" opacity="0.3"/>
      <circle cx="298.6" cy="210.2" r="0.9" fill="#fff" opacity="0.55"/>
      <circle cx="14.8" cy="130.1" r="0.5" fill="#fff" opacity="0.3"/>
      <circle cx="150.4" cy="298.7" r="0.9" fill="#fff" opacity="0.55"/>
      <circle cx="19.8" cy="217.6" r="0.9" fill="#fff" opacity="0.55"/>
      <circle cx="173.6" cy="31.0" r="0.9" fill="#fff" opacity="0.55"/>
      <circle cx="136.4" cy="313.8" r="0.9" fill="#fff" opacity="0.55"/>
      <circle cx="265.2" cy="298.0" r="0.5" fill="#fff" opacity="0.3"/>
      <circle cx="254.0" cy="97.7" r="0.5" fill="#fff" opacity="0.3"/>
      <circle cx="121.3" cy="188.5" r="0.5" fill="#fff" opacity="0.3"/>
      <circle cx="143.9" cy="251.0" r="0.9" fill="#fff" opacity="0.55"/>
      <circle cx="169.0" cy="94.8" r="0.9" fill="#fff" opacity="0.55"/>
    </g>

    <circle class="cluster-outline" cx="160.0" cy="160.0" r="24"
              fill="none" stroke="currentColor" stroke-opacity="0.32"
              stroke-width="1.1"/>

    <!-- One diffraction-spike marker per jump. -->
    <g class="jump-markers">
      <use href="#star-mark" x="145.0" y="145.0" width="30" height="30"/>
    </g>
  </svg>
