<svg xmlns="http://www.w3.org/2000/svg" viewBox="0 0 320 320" data-vertex-source="jumps"
       color="oklch(0.82 0.14 268)">
    <title>Knowledge</title>
    <desc>Knowledge as a constellation of its 32 jumps. One marker per jump.</desc>
    <defs xmlns="http://www.w3.org/2000/svg">
        <linearGradient id="ray-grad" x1="0" y1="0" x2="1" y2="0">
          <stop offset="0" stop-color="transparent"/>
          <stop offset="0.48" stop-color="#fff" stop-opacity="0.58"/>
          <stop offset="0.50" stop-color="#fff" stop-opacity="0.92"/>
          <stop offset="0.52" stop-color="#fff" stop-opacity="0.58"/>
          <stop offset="1" stop-color="transparent"/>
        </linearGradient>
        <symbol id="star-mark" viewBox="-50 -50 100 100" overflow="visible">
          <g filter="drop-shadow(0 0 1px #fff) drop-shadow(0 0 3px currentColor)" opacity="0.76">
            <g opacity="0.68" style="mix-blend-mode:screen">
              <rect x="-32.00" y="-0.390" width="64.00" height="0.780" rx="0.390" fill="url(#ray-grad)" transform="rotate(-3.00)"/>
              <rect x="-32.00" y="-0.390" width="64.00" height="0.780" rx="0.390" fill="url(#ray-grad)" transform="rotate(63.00)"/>
              <rect x="-32.00" y="-0.390" width="64.00" height="0.780" rx="0.390" fill="url(#ray-grad)" transform="rotate(117.00)"/>
              <rect x="-32.00" y="-0.390" width="64.00" height="0.780" rx="0.390" fill="url(#ray-grad)" transform="rotate(183.00)"/>
              <rect x="-32.00" y="-0.390" width="64.00" height="0.780" rx="0.390" fill="url(#ray-grad)" transform="rotate(237.00)"/>
              <rect x="-32.00" y="-0.390" width="64.00" height="0.780" rx="0.390" fill="url(#ray-grad)" transform="rotate(303.00)"/>
            </g>
            <g opacity="0.32" style="mix-blend-mode:screen">
              <rect x="-18.00" y="-0.125" width="36.00" height="0.250" rx="0.125" fill="url(#ray-grad)" transform="rotate(27.00)"/>
              <rect x="-18.00" y="-0.125" width="36.00" height="0.250" rx="0.125" fill="url(#ray-grad)" transform="rotate(93.00)"/>
              <rect x="-18.00" y="-0.125" width="36.00" height="0.250" rx="0.125" fill="url(#ray-grad)" transform="rotate(147.00)"/>
              <rect x="-18.00" y="-0.125" width="36.00" height="0.250" rx="0.125" fill="url(#ray-grad)" transform="rotate(213.00)"/>
              <rect x="-18.00" y="-0.125" width="36.00" height="0.250" rx="0.125" fill="url(#ray-grad)" transform="rotate(267.00)"/>
              <rect x="-18.00" y="-0.125" width="36.00" height="0.250" rx="0.125" fill="url(#ray-grad)" transform="rotate(333.00)"/>
            </g>
            <circle r="2.2" fill="currentColor" opacity="0.16"/>
            <circle r="1.4" fill="#fff"/>
          </g>
        </symbol>
      </defs>

    <!-- Wireframe edges edited in tracing-workbench.html. -->
    <polyline class="cluster-outline" fill="none" stroke="currentColor" stroke-opacity="0.32" stroke-width="1.1" stroke-linejoin="round" stroke-linecap="round" points="70,40 70,290"/>
    <polyline class="cluster-outline" fill="none" stroke="currentColor" stroke-opacity="0.32" stroke-width="1.1" stroke-linejoin="round" stroke-linecap="round" points="70,290 160,310"/>
    <polyline class="cluster-outline" fill="none" stroke="currentColor" stroke-opacity="0.32" stroke-width="1.1" stroke-linejoin="round" stroke-linecap="round" points="160,310 250,290"/>
    <polyline class="cluster-outline" fill="none" stroke="currentColor" stroke-opacity="0.32" stroke-width="1.1" stroke-linejoin="round" stroke-linecap="round" points="250,290 250,40"/>
    <polyline class="cluster-outline" fill="none" stroke="currentColor" stroke-opacity="0.32" stroke-width="1.1" stroke-linejoin="round" stroke-linecap="round" points="70,70 40,60"/>
    <polyline class="cluster-outline" fill="none" stroke="currentColor" stroke-opacity="0.32" stroke-width="1.1" stroke-linejoin="round" stroke-linecap="round" points="40,60 40,90"/>
    <polyline class="cluster-outline" fill="none" stroke="currentColor" stroke-opacity="0.32" stroke-width="1.1" stroke-linejoin="round" stroke-linecap="round" points="40,90 10,80"/>
    <polyline class="cluster-outline" fill="none" stroke="currentColor" stroke-opacity="0.32" stroke-width="1.1" stroke-linejoin="round" stroke-linecap="round" points="10,80 10,290"/>
    <polyline class="cluster-outline" fill="none" stroke="currentColor" stroke-opacity="0.32" stroke-width="1.1" stroke-linejoin="round" stroke-linecap="round" points="40,290 40,90"/>
    <polyline class="cluster-outline" fill="none" stroke="currentColor" stroke-opacity="0.32" stroke-width="1.1" stroke-linejoin="round" stroke-linecap="round" points="10,290 160,310"/>
    <polyline class="cluster-outline" fill="none" stroke="currentColor" stroke-opacity="0.32" stroke-width="1.1" stroke-linejoin="round" stroke-linecap="round" points="40,290 160,310"/>
    <polyline class="cluster-outline" fill="none" stroke="currentColor" stroke-opacity="0.32" stroke-width="1.1" stroke-linejoin="round" stroke-linecap="round" points="160,310 280,290"/>
    <polyline class="cluster-outline" fill="none" stroke="currentColor" stroke-opacity="0.32" stroke-width="1.1" stroke-linejoin="round" stroke-linecap="round" points="160,310 310,290"/>
    <polyline class="cluster-outline" fill="none" stroke="currentColor" stroke-opacity="0.32" stroke-width="1.1" stroke-linejoin="round" stroke-linecap="round" points="310,290 310,80"/>
    <polyline class="cluster-outline" fill="none" stroke="currentColor" stroke-opacity="0.32" stroke-width="1.1" stroke-linejoin="round" stroke-linecap="round" points="310,80 280,90"/>
    <polyline class="cluster-outline" fill="none" stroke="currentColor" stroke-opacity="0.32" stroke-width="1.1" stroke-linejoin="round" stroke-linecap="round" points="280,90 280,60"/>
    <polyline class="cluster-outline" fill="none" stroke="currentColor" stroke-opacity="0.32" stroke-width="1.1" stroke-linejoin="round" stroke-linecap="round" points="280,60 250,70"/>
    <polyline class="cluster-outline" fill="none" stroke="currentColor" stroke-opacity="0.32" stroke-width="1.1" stroke-linejoin="round" stroke-linecap="round" points="280,90 280,290"/>
    <polyline class="cluster-outline" fill="none" stroke="currentColor" stroke-opacity="0.32" stroke-width="1.1" stroke-linejoin="round" stroke-linecap="round" points="160,60 160,310"/>
    <polyline class="cluster-outline" fill="none" stroke="currentColor" stroke-opacity="0.32" stroke-width="1.1" stroke-linejoin="round" stroke-linecap="round" points="90,90 140,100"/>
    <polyline class="cluster-outline" fill="none" stroke="currentColor" stroke-opacity="0.32" stroke-width="1.1" stroke-linejoin="round" stroke-linecap="round" points="90,210 140,220"/>
    <polyline class="cluster-outline" fill="none" stroke="currentColor" stroke-opacity="0.32" stroke-width="1.1" stroke-linejoin="round" stroke-linecap="round" points="180,220 230,210"/>
    <polyline class="cluster-outline" fill="none" stroke="currentColor" stroke-opacity="0.32" stroke-width="1.1" stroke-linejoin="round" stroke-linecap="round" points="180,100 230,90"/>
    <polyline class="cluster-outline" fill="none" stroke="currentColor" stroke-opacity="0.32" stroke-width="1.1" stroke-linejoin="round" stroke-linecap="round" points="70,40 160,60"/>
    <polyline class="cluster-outline" fill="none" stroke="currentColor" stroke-opacity="0.32" stroke-width="1.1" stroke-linejoin="round" stroke-linecap="round" points="160,60 250,40"/>
    <polyline class="cluster-outline" fill="none" stroke="currentColor" stroke-opacity="0.32" stroke-width="1.1" stroke-linejoin="round" stroke-linecap="round" points="180,160 230,150"/>
    <polyline class="cluster-outline" fill="none" stroke="currentColor" stroke-opacity="0.32" stroke-width="1.1" stroke-linejoin="round" stroke-linecap="round" points="140,160 90,150"/>

    <!-- One diffraction-spike marker per unique vertex. -->
    <g class="jump-markers">
      <use href="#star-mark" x="145" y="295" width="30" height="30"/>
      <use href="#star-mark" x="145" y="45" width="30" height="30"/>
      <use href="#star-mark" x="55" y="25" width="30" height="30"/>
      <use href="#star-mark" x="235" y="25" width="30" height="30"/>
      <use href="#star-mark" x="55" y="275" width="30" height="30"/>
      <use href="#star-mark" x="235" y="275" width="30" height="30"/>
      <use href="#star-mark" x="55" y="55" width="30" height="30"/>
      <use href="#star-mark" x="235" y="55" width="30" height="30"/>
      <use href="#star-mark" x="265" y="45" width="30" height="30"/>
      <use href="#star-mark" x="25" y="45" width="30" height="30"/>
      <use href="#star-mark" x="25" y="275" width="30" height="30"/>
      <use href="#star-mark" x="265" y="275" width="30" height="30"/>
      <use href="#star-mark" x="265" y="75" width="30" height="30"/>
      <use href="#star-mark" x="295" y="65" width="30" height="30"/>
      <use href="#star-mark" x="295" y="275" width="30" height="30"/>
      <use href="#star-mark" x="25" y="75" width="30" height="30"/>
      <use href="#star-mark" x="-5" y="65" width="30" height="30"/>
      <use href="#star-mark" x="-5" y="275" width="30" height="30"/>
      <use href="#star-mark" x="75" y="75" width="30" height="30"/>
      <use href="#star-mark" x="125" y="85" width="30" height="30"/>
      <use href="#star-mark" x="75" y="195" width="30" height="30"/>
      <use href="#star-mark" x="125" y="205" width="30" height="30"/>
      <use href="#star-mark" x="215" y="75" width="30" height="30"/>
      <use href="#star-mark" x="165" y="85" width="30" height="30"/>
      <use href="#star-mark" x="215" y="195" width="30" height="30"/>
      <use href="#star-mark" x="165" y="205" width="30" height="30"/>
      <use href="#star-mark" x="75" y="135" width="30" height="30"/>
      <use href="#star-mark" x="125" y="145" width="30" height="30"/>
      <use href="#star-mark" x="165" y="145" width="30" height="30"/>
      <use href="#star-mark" x="215" y="135" width="30" height="30"/>
      <use href="#star-mark" x="145" y="105" width="30" height="30"/>
      <use href="#star-mark" x="145" y="185" width="30" height="30"/>
    </g>
  </svg>
