<svg xmlns="http://www.w3.org/2000/svg" viewBox="0 0 320 320"
       color="oklch(0.82 0.14 8)"
       style="background: radial-gradient(circle at 50% 60%, #07121a 0%, #03080d 75%)">
    <title>Resources and Durability</title>
    <desc>Resources and Durability as a constellation of its 23 jumps. One marker per jump.</desc>
    <defs>
      <linearGradient id="ray-grad" x1="0" y1="0" x2="1" y2="0">
        <stop offset="0"    stop-color="transparent"/>
        <stop offset="0.48" stop-color="#fff" stop-opacity="0.58"/>
        <stop offset="0.50" stop-color="#fff" stop-opacity="0.92"/>
        <stop offset="0.52" stop-color="#fff" stop-opacity="0.58"/>
        <stop offset="1"    stop-color="transparent"/>
      </linearGradient>
      <symbol id="star-mark" viewBox="-50 -50 100 100" overflow="visible">
        <g filter="drop-shadow(0 0 1px #fff) drop-shadow(0 0 3px currentColor)" opacity="0.76">
          <g opacity="0.68" style="mix-blend-mode:screen">
            <rect x="-32.00" y="-0.390" width="64.00" height="0.780" rx="0.390" fill="url(#ray-grad)" transform="rotate(-3.00)"/>
            <rect x="-32.00" y="-0.390" width="64.00" height="0.780" rx="0.390" fill="url(#ray-grad)" transform="rotate(63.00)"/>
            <rect x="-32.00" y="-0.390" width="64.00" height="0.780" rx="0.390" fill="url(#ray-grad)" transform="rotate(117.00)"/>
            <rect x="-32.00" y="-0.390" width="64.00" height="0.780" rx="0.390" fill="url(#ray-grad)" transform="rotate(183.00)"/>
            <rect x="-32.00" y="-0.390" width="64.00" height="0.780" rx="0.390" fill="url(#ray-grad)" transform="rotate(237.00)"/>
            <rect x="-32.00" y="-0.390" width="64.00" height="0.780" rx="0.390" fill="url(#ray-grad)" transform="rotate(303.00)"/>
          </g>
          <g opacity="0.32" style="mix-blend-mode:screen">
            <rect x="-18.00" y="-0.125" width="36.00" height="0.250" rx="0.125" fill="url(#ray-grad)" transform="rotate(27.00)"/>
            <rect x="-18.00" y="-0.125" width="36.00" height="0.250" rx="0.125" fill="url(#ray-grad)" transform="rotate(93.00)"/>
            <rect x="-18.00" y="-0.125" width="36.00" height="0.250" rx="0.125" fill="url(#ray-grad)" transform="rotate(147.00)"/>
            <rect x="-18.00" y="-0.125" width="36.00" height="0.250" rx="0.125" fill="url(#ray-grad)" transform="rotate(213.00)"/>
            <rect x="-18.00" y="-0.125" width="36.00" height="0.250" rx="0.125" fill="url(#ray-grad)" transform="rotate(267.00)"/>
            <rect x="-18.00" y="-0.125" width="36.00" height="0.250" rx="0.125" fill="url(#ray-grad)" transform="rotate(333.00)"/>
          </g>
          <circle r="2.2" fill="currentColor" opacity="0.16"/>
          <circle r="1.4" fill="#fff"/>
        </g>
      </symbol>
    </defs>

    <!-- Background starfield (deterministic seed-10 LCG, 60 dots). -->
    <g class="starfield">
      <circle cx="182.8" cy="137.2" r="0.9" fill="#fff" opacity="0.55"/>
      <circle cx="66.0" cy="260.3" r="0.9" fill="#fff" opacity="0.55"/>
      <circle cx="209.1" cy="51.3" r="0.9" fill="#fff" opacity="0.55"/>
      <circle cx="104.9" cy="80.0" r="0.9" fill="#fff" opacity="0.55"/>
      <circle cx="318.9" cy="14.3" r="0.9" fill="#fff" opacity="0.55"/>
      <circle cx="193.0" cy="122.1" r="0.5" fill="#fff" opacity="0.3"/>
      <circle cx="216.0" cy="146.2" r="0.9" fill="#fff" opacity="0.55"/>
      <circle cx="211.8" cy="42.6" r="0.9" fill="#fff" opacity="0.55"/>
      <circle cx="314.4" cy="310.2" r="0.9" fill="#fff" opacity="0.55"/>
      <circle cx="14.2" cy="1.3" r="0.5" fill="#fff" opacity="0.3"/>
      <circle cx="301.1" cy="96.9" r="0.5" fill="#fff" opacity="0.3"/>
      <circle cx="287.4" cy="100.6" r="0.9" fill="#fff" opacity="0.55"/>
      <circle cx="139.5" cy="20.8" r="0.9" fill="#fff" opacity="0.55"/>
      <circle cx="270.1" cy="50.1" r="0.5" fill="#fff" opacity="0.3"/>
      <circle cx="132.1" cy="11.8" r="0.9" fill="#fff" opacity="0.55"/>
      <circle cx="261.8" cy="210.5" r="0.9" fill="#fff" opacity="0.55"/>
      <circle cx="273.6" cy="47.9" r="0.9" fill="#fff" opacity="0.55"/>
      <circle cx="119.7" cy="192.4" r="0.5" fill="#fff" opacity="0.3"/>
      <circle cx="248.2" cy="30.9" r="0.5" fill="#fff" opacity="0.3"/>
      <circle cx="258.4" cy="303.3" r="0.5" fill="#fff" opacity="0.3"/>
      <circle cx="132.5" cy="78.6" r="0.5" fill="#fff" opacity="0.3"/>
      <circle cx="197.5" cy="57.1" r="0.5" fill="#fff" opacity="0.3"/>
      <circle cx="145.8" cy="52.8" r="0.9" fill="#fff" opacity="0.55"/>
      <circle cx="262.7" cy="248.8" r="0.9" fill="#fff" opacity="0.55"/>
      <circle cx="111.2" cy="139.1" r="0.5" fill="#fff" opacity="0.3"/>
      <circle cx="228.0" cy="106.1" r="0.5" fill="#fff" opacity="0.3"/>
      <circle cx="25.6" cy="143.4" r="0.9" fill="#fff" opacity="0.55"/>
      <circle cx="125.0" cy="278.3" r="0.9" fill="#fff" opacity="0.55"/>
      <circle cx="77.3" cy="168.1" r="0.9" fill="#fff" opacity="0.55"/>
      <circle cx="166.4" cy="192.7" r="0.5" fill="#fff" opacity="0.3"/>
      <circle cx="156.6" cy="147.7" r="0.5" fill="#fff" opacity="0.3"/>
      <circle cx="134.5" cy="187.2" r="0.9" fill="#fff" opacity="0.55"/>
      <circle cx="156.8" cy="53.1" r="0.5" fill="#fff" opacity="0.3"/>
      <circle cx="310.0" cy="132.9" r="0.5" fill="#fff" opacity="0.3"/>
      <circle cx="0.9" cy="171.3" r="0.5" fill="#fff" opacity="0.3"/>
      <circle cx="29.7" cy="34.8" r="0.9" fill="#fff" opacity="0.55"/>
      <circle cx="317.7" cy="155.2" r="0.9" fill="#fff" opacity="0.55"/>
      <circle cx="139.7" cy="160.4" r="0.5" fill="#fff" opacity="0.3"/>
      <circle cx="232.4" cy="287.3" r="0.9" fill="#fff" opacity="0.55"/>
      <circle cx="135.5" cy="207.8" r="0.9" fill="#fff" opacity="0.55"/>
      <circle cx="49.2" cy="75.9" r="0.9" fill="#fff" opacity="0.55"/>
      <circle cx="219.8" cy="205.6" r="0.9" fill="#fff" opacity="0.55"/>
      <circle cx="265.4" cy="153.3" r="0.9" fill="#fff" opacity="0.55"/>
      <circle cx="308.0" cy="139.3" r="0.9" fill="#fff" opacity="0.55"/>
      <circle cx="229.8" cy="284.4" r="0.5" fill="#fff" opacity="0.3"/>
      <circle cx="292.2" cy="245.4" r="0.9" fill="#fff" opacity="0.55"/>
      <circle cx="314.0" cy="91.4" r="0.9" fill="#fff" opacity="0.55"/>
      <circle cx="45.2" cy="190.4" r="0.9" fill="#fff" opacity="0.55"/>
      <circle cx="61.4" cy="112.0" r="0.5" fill="#fff" opacity="0.3"/>
      <circle cx="62.3" cy="66.5" r="0.5" fill="#fff" opacity="0.3"/>
      <circle cx="319.9" cy="284.0" r="0.9" fill="#fff" opacity="0.55"/>
      <circle cx="238.0" cy="222.5" r="0.9" fill="#fff" opacity="0.55"/>
      <circle cx="135.5" cy="212.5" r="0.9" fill="#fff" opacity="0.55"/>
      <circle cx="85.1" cy="116.6" r="0.9" fill="#fff" opacity="0.55"/>
      <circle cx="200.7" cy="67.1" r="0.9" fill="#fff" opacity="0.55"/>
      <circle cx="280.0" cy="278.8" r="0.9" fill="#fff" opacity="0.55"/>
      <circle cx="22.5" cy="135.5" r="0.5" fill="#fff" opacity="0.3"/>
      <circle cx="17.7" cy="81.5" r="0.9" fill="#fff" opacity="0.55"/>
      <circle cx="243.0" cy="201.2" r="0.5" fill="#fff" opacity="0.3"/>
      <circle cx="222.4" cy="162.1" r="0.9" fill="#fff" opacity="0.55"/>
    </g>

    <polyline class="cluster-outline" points="176.5,66.0 115.0,77.2 238.1,77.2 81.4,116.4 271.6,116.4 92.6,172.3 260.4,172.3 115.0,222.7 238.1,222.7 176.5,278.6 176.5,138.7 154.2,161.1 198.9,161.1 176.5,183.5 290.0,141.9 270.0,93.9 230.0,57.7 176.5,41.4 119.3,49.6 69.4,82.4 37.1,135.0 30.0,198.1 51.0,260.2 176.5,66.0"
              fill="none" stroke="currentColor" stroke-opacity="0.32"
              stroke-width="1.1" stroke-linejoin="round" stroke-linecap="round"/>

    <!-- One diffraction-spike marker per jump. -->
    <g class="jump-markers">
      <use href="#star-mark" x="161.5" y="51.0" width="30" height="30"/>
      <use href="#star-mark" x="100.0" y="62.2" width="30" height="30"/>
      <use href="#star-mark" x="223.1" y="62.2" width="30" height="30"/>
      <use href="#star-mark" x="66.4" y="101.4" width="30" height="30"/>
      <use href="#star-mark" x="256.6" y="101.4" width="30" height="30"/>
      <use href="#star-mark" x="77.6" y="157.3" width="30" height="30"/>
      <use href="#star-mark" x="245.4" y="157.3" width="30" height="30"/>
      <use href="#star-mark" x="100.0" y="207.7" width="30" height="30"/>
      <use href="#star-mark" x="223.1" y="207.7" width="30" height="30"/>
      <use href="#star-mark" x="161.5" y="263.6" width="30" height="30"/>
      <use href="#star-mark" x="161.5" y="123.7" width="30" height="30"/>
      <use href="#star-mark" x="139.2" y="146.1" width="30" height="30"/>
      <use href="#star-mark" x="183.9" y="146.1" width="30" height="30"/>
      <use href="#star-mark" x="161.5" y="168.5" width="30" height="30"/>
      <use href="#star-mark" x="275.0" y="126.9" width="30" height="30"/>
      <use href="#star-mark" x="255.0" y="78.9" width="30" height="30"/>
      <use href="#star-mark" x="215.0" y="42.7" width="30" height="30"/>
      <use href="#star-mark" x="161.5" y="26.4" width="30" height="30"/>
      <use href="#star-mark" x="104.3" y="34.6" width="30" height="30"/>
      <use href="#star-mark" x="54.4" y="67.4" width="30" height="30"/>
      <use href="#star-mark" x="22.1" y="120.0" width="30" height="30"/>
      <use href="#star-mark" x="15.0" y="183.1" width="30" height="30"/>
      <use href="#star-mark" x="36.0" y="245.2" width="30" height="30"/>
    </g>
  </svg>
