<svg xmlns="http://www.w3.org/2000/svg" viewBox="0 0 320 320"
       color="oklch(0.82 0.14 52)"
       style="background: radial-gradient(circle at 50% 60%, #07121a 0%, #03080d 75%)">
    <title>Capstone</title>
    <desc>Capstone as a constellation of its 19 jumps. One marker per jump.</desc>
    <defs>
      <linearGradient id="ray-grad" x1="0" y1="0" x2="1" y2="0">
        <stop offset="0"    stop-color="transparent"/>
        <stop offset="0.48" stop-color="#fff" stop-opacity="0.58"/>
        <stop offset="0.50" stop-color="#fff" stop-opacity="0.92"/>
        <stop offset="0.52" stop-color="#fff" stop-opacity="0.58"/>
        <stop offset="1"    stop-color="transparent"/>
      </linearGradient>
      <symbol id="star-mark" viewBox="-50 -50 100 100" overflow="visible">
        <g filter="drop-shadow(0 0 1px #fff) drop-shadow(0 0 3px currentColor)" opacity="0.76">
          <g opacity="0.68" style="mix-blend-mode:screen">
            <rect x="-32.00" y="-0.390" width="64.00" height="0.780" rx="0.390" fill="url(#ray-grad)" transform="rotate(-3.00)"/>
            <rect x="-32.00" y="-0.390" width="64.00" height="0.780" rx="0.390" fill="url(#ray-grad)" transform="rotate(63.00)"/>
            <rect x="-32.00" y="-0.390" width="64.00" height="0.780" rx="0.390" fill="url(#ray-grad)" transform="rotate(117.00)"/>
            <rect x="-32.00" y="-0.390" width="64.00" height="0.780" rx="0.390" fill="url(#ray-grad)" transform="rotate(183.00)"/>
            <rect x="-32.00" y="-0.390" width="64.00" height="0.780" rx="0.390" fill="url(#ray-grad)" transform="rotate(237.00)"/>
            <rect x="-32.00" y="-0.390" width="64.00" height="0.780" rx="0.390" fill="url(#ray-grad)" transform="rotate(303.00)"/>
          </g>
          <g opacity="0.32" style="mix-blend-mode:screen">
            <rect x="-18.00" y="-0.125" width="36.00" height="0.250" rx="0.125" fill="url(#ray-grad)" transform="rotate(27.00)"/>
            <rect x="-18.00" y="-0.125" width="36.00" height="0.250" rx="0.125" fill="url(#ray-grad)" transform="rotate(93.00)"/>
            <rect x="-18.00" y="-0.125" width="36.00" height="0.250" rx="0.125" fill="url(#ray-grad)" transform="rotate(147.00)"/>
            <rect x="-18.00" y="-0.125" width="36.00" height="0.250" rx="0.125" fill="url(#ray-grad)" transform="rotate(213.00)"/>
            <rect x="-18.00" y="-0.125" width="36.00" height="0.250" rx="0.125" fill="url(#ray-grad)" transform="rotate(267.00)"/>
            <rect x="-18.00" y="-0.125" width="36.00" height="0.250" rx="0.125" fill="url(#ray-grad)" transform="rotate(333.00)"/>
          </g>
          <circle r="2.2" fill="currentColor" opacity="0.16"/>
          <circle r="1.4" fill="#fff"/>
        </g>
      </symbol>
    </defs>

    <!-- Background starfield (deterministic seed-13 LCG, 60 dots). -->
    <g class="starfield">
      <circle cx="82.9" cy="219.3" r="0.9" fill="#fff" opacity="0.55"/>
      <circle cx="271.8" cy="59.4" r="0.5" fill="#fff" opacity="0.3"/>
      <circle cx="47.1" cy="72.1" r="0.9" fill="#fff" opacity="0.55"/>
      <circle cx="41.7" cy="170.0" r="0.5" fill="#fff" opacity="0.3"/>
      <circle cx="94.3" cy="138.1" r="0.9" fill="#fff" opacity="0.55"/>
      <circle cx="194.7" cy="4.6" r="0.5" fill="#fff" opacity="0.3"/>
      <circle cx="46.9" cy="278.8" r="0.9" fill="#fff" opacity="0.55"/>
      <circle cx="257.9" cy="264.4" r="0.9" fill="#fff" opacity="0.55"/>
      <circle cx="303.8" cy="254.0" r="0.5" fill="#fff" opacity="0.3"/>
      <circle cx="272.0" cy="155.8" r="0.9" fill="#fff" opacity="0.55"/>
      <circle cx="180.5" cy="137.5" r="0.5" fill="#fff" opacity="0.3"/>
      <circle cx="137.5" cy="100.4" r="0.5" fill="#fff" opacity="0.3"/>
      <circle cx="262.3" cy="255.4" r="0.9" fill="#fff" opacity="0.55"/>
      <circle cx="221.1" cy="177.4" r="0.9" fill="#fff" opacity="0.55"/>
      <circle cx="43.2" cy="216.6" r="0.5" fill="#fff" opacity="0.3"/>
      <circle cx="56.5" cy="64.8" r="0.9" fill="#fff" opacity="0.55"/>
      <circle cx="81.1" cy="147.0" r="0.9" fill="#fff" opacity="0.55"/>
      <circle cx="126.6" cy="41.8" r="0.9" fill="#fff" opacity="0.55"/>
      <circle cx="75.3" cy="75.4" r="0.5" fill="#fff" opacity="0.3"/>
      <circle cx="117.3" cy="23.4" r="0.9" fill="#fff" opacity="0.55"/>
      <circle cx="305.2" cy="124.7" r="0.9" fill="#fff" opacity="0.55"/>
      <circle cx="298.6" cy="13.8" r="0.5" fill="#fff" opacity="0.3"/>
      <circle cx="258.0" cy="268.2" r="0.9" fill="#fff" opacity="0.55"/>
      <circle cx="51.1" cy="132.3" r="0.9" fill="#fff" opacity="0.55"/>
      <circle cx="283.6" cy="257.0" r="0.5" fill="#fff" opacity="0.3"/>
      <circle cx="273.2" cy="119.9" r="0.9" fill="#fff" opacity="0.55"/>
      <circle cx="43.8" cy="310.8" r="0.9" fill="#fff" opacity="0.55"/>
      <circle cx="231.3" cy="67.7" r="0.9" fill="#fff" opacity="0.55"/>
      <circle cx="185.9" cy="189.2" r="0.5" fill="#fff" opacity="0.3"/>
      <circle cx="232.9" cy="109.2" r="0.5" fill="#fff" opacity="0.3"/>
      <circle cx="52.6" cy="218.9" r="0.5" fill="#fff" opacity="0.3"/>
      <circle cx="72.2" cy="22.1" r="0.9" fill="#fff" opacity="0.55"/>
      <circle cx="178.0" cy="173.9" r="0.5" fill="#fff" opacity="0.3"/>
      <circle cx="140.7" cy="109.8" r="0.5" fill="#fff" opacity="0.3"/>
      <circle cx="1.0" cy="319.3" r="0.5" fill="#fff" opacity="0.3"/>
      <circle cx="96.5" cy="86.1" r="0.9" fill="#fff" opacity="0.55"/>
      <circle cx="24.8" cy="150.4" r="0.5" fill="#fff" opacity="0.3"/>
      <circle cx="267.0" cy="1.8" r="0.5" fill="#fff" opacity="0.3"/>
      <circle cx="158.9" cy="310.3" r="0.9" fill="#fff" opacity="0.55"/>
      <circle cx="151.8" cy="214.2" r="0.5" fill="#fff" opacity="0.3"/>
      <circle cx="10.2" cy="160.4" r="0.9" fill="#fff" opacity="0.55"/>
      <circle cx="236.3" cy="82.7" r="0.9" fill="#fff" opacity="0.55"/>
      <circle cx="271.7" cy="82.7" r="0.9" fill="#fff" opacity="0.55"/>
      <circle cx="113.8" cy="78.2" r="0.5" fill="#fff" opacity="0.3"/>
      <circle cx="65.2" cy="112.3" r="0.5" fill="#fff" opacity="0.3"/>
      <circle cx="127.2" cy="27.8" r="0.9" fill="#fff" opacity="0.55"/>
      <circle cx="191.9" cy="1.3" r="0.9" fill="#fff" opacity="0.55"/>
      <circle cx="60.9" cy="153.8" r="0.9" fill="#fff" opacity="0.55"/>
      <circle cx="106.5" cy="92.6" r="0.5" fill="#fff" opacity="0.3"/>
      <circle cx="43.8" cy="276.3" r="0.5" fill="#fff" opacity="0.3"/>
      <circle cx="263.5" cy="69.8" r="0.5" fill="#fff" opacity="0.3"/>
      <circle cx="124.3" cy="10.7" r="0.5" fill="#fff" opacity="0.3"/>
      <circle cx="115.5" cy="141.4" r="0.9" fill="#fff" opacity="0.55"/>
      <circle cx="316.8" cy="13.9" r="0.9" fill="#fff" opacity="0.55"/>
      <circle cx="41.4" cy="257.2" r="0.5" fill="#fff" opacity="0.3"/>
      <circle cx="285.7" cy="174.5" r="0.5" fill="#fff" opacity="0.3"/>
      <circle cx="1.6" cy="79.4" r="0.9" fill="#fff" opacity="0.55"/>
      <circle cx="47.9" cy="153.3" r="0.5" fill="#fff" opacity="0.3"/>
      <circle cx="110.4" cy="256.6" r="0.5" fill="#fff" opacity="0.3"/>
      <circle cx="229.9" cy="213.3" r="0.9" fill="#fff" opacity="0.55"/>
    </g>

    <polyline class="cluster-outline" points="156.4,58.3 124.2,116.2 188.5,116.2 85.6,167.7 227.1,167.7 47.0,219.2 265.8,219.2 34.1,290.0 278.6,290.0 104.9,142.0 207.8,142.0 156.4,154.9 156.4,290.0 286.9,145.6 263.8,90.4 217.8,48.8 156.4,30.0 90.5,39.4 33.1,77.2 156.4,58.3"
              fill="none" stroke="currentColor" stroke-opacity="0.32"
              stroke-width="1.1" stroke-linejoin="round" stroke-linecap="round"/>

    <!-- One diffraction-spike marker per jump. -->
    <g class="jump-markers">
      <use href="#star-mark" x="141.4" y="43.3" width="30" height="30"/>
      <use href="#star-mark" x="109.2" y="101.2" width="30" height="30"/>
      <use href="#star-mark" x="173.5" y="101.2" width="30" height="30"/>
      <use href="#star-mark" x="70.6" y="152.7" width="30" height="30"/>
      <use href="#star-mark" x="212.1" y="152.7" width="30" height="30"/>
      <use href="#star-mark" x="32.0" y="204.2" width="30" height="30"/>
      <use href="#star-mark" x="250.8" y="204.2" width="30" height="30"/>
      <use href="#star-mark" x="19.1" y="275.0" width="30" height="30"/>
      <use href="#star-mark" x="263.6" y="275.0" width="30" height="30"/>
      <use href="#star-mark" x="89.9" y="127.0" width="30" height="30"/>
      <use href="#star-mark" x="192.8" y="127.0" width="30" height="30"/>
      <use href="#star-mark" x="141.4" y="139.9" width="30" height="30"/>
      <use href="#star-mark" x="141.4" y="275.0" width="30" height="30"/>
      <use href="#star-mark" x="271.9" y="130.6" width="30" height="30"/>
      <use href="#star-mark" x="248.8" y="75.4" width="30" height="30"/>
      <use href="#star-mark" x="202.8" y="33.8" width="30" height="30"/>
      <use href="#star-mark" x="141.4" y="15.0" width="30" height="30"/>
      <use href="#star-mark" x="75.5" y="24.4" width="30" height="30"/>
      <use href="#star-mark" x="18.1" y="62.2" width="30" height="30"/>
    </g>
  </svg>
