<svg xmlns="http://www.w3.org/2000/svg" viewBox="0 0 320 320"
       color="oklch(0.82 0.14 196)"
       style="background: radial-gradient(circle at 50% 60%, #07121a 0%, #03080d 75%)">
    <title>Toolkits</title>
    <desc>Toolkits as a constellation of its 24 jumps. One marker per jump.</desc>
    <defs>
      <linearGradient id="ray-grad" x1="0" y1="0" x2="1" y2="0">
        <stop offset="0"    stop-color="transparent"/>
        <stop offset="0.48" stop-color="#fff" stop-opacity="0.58"/>
        <stop offset="0.50" stop-color="#fff" stop-opacity="0.92"/>
        <stop offset="0.52" stop-color="#fff" stop-opacity="0.58"/>
        <stop offset="1"    stop-color="transparent"/>
      </linearGradient>
      <symbol id="star-mark" viewBox="-50 -50 100 100" overflow="visible">
        <g filter="drop-shadow(0 0 1px #fff) drop-shadow(0 0 3px currentColor)" opacity="0.76">
          <g opacity="0.68" style="mix-blend-mode:screen">
            <rect x="-32.00" y="-0.390" width="64.00" height="0.780" rx="0.390" fill="url(#ray-grad)" transform="rotate(-3.00)"/>
            <rect x="-32.00" y="-0.390" width="64.00" height="0.780" rx="0.390" fill="url(#ray-grad)" transform="rotate(63.00)"/>
            <rect x="-32.00" y="-0.390" width="64.00" height="0.780" rx="0.390" fill="url(#ray-grad)" transform="rotate(117.00)"/>
            <rect x="-32.00" y="-0.390" width="64.00" height="0.780" rx="0.390" fill="url(#ray-grad)" transform="rotate(183.00)"/>
            <rect x="-32.00" y="-0.390" width="64.00" height="0.780" rx="0.390" fill="url(#ray-grad)" transform="rotate(237.00)"/>
            <rect x="-32.00" y="-0.390" width="64.00" height="0.780" rx="0.390" fill="url(#ray-grad)" transform="rotate(303.00)"/>
          </g>
          <g opacity="0.32" style="mix-blend-mode:screen">
            <rect x="-18.00" y="-0.125" width="36.00" height="0.250" rx="0.125" fill="url(#ray-grad)" transform="rotate(27.00)"/>
            <rect x="-18.00" y="-0.125" width="36.00" height="0.250" rx="0.125" fill="url(#ray-grad)" transform="rotate(93.00)"/>
            <rect x="-18.00" y="-0.125" width="36.00" height="0.250" rx="0.125" fill="url(#ray-grad)" transform="rotate(147.00)"/>
            <rect x="-18.00" y="-0.125" width="36.00" height="0.250" rx="0.125" fill="url(#ray-grad)" transform="rotate(213.00)"/>
            <rect x="-18.00" y="-0.125" width="36.00" height="0.250" rx="0.125" fill="url(#ray-grad)" transform="rotate(267.00)"/>
            <rect x="-18.00" y="-0.125" width="36.00" height="0.250" rx="0.125" fill="url(#ray-grad)" transform="rotate(333.00)"/>
          </g>
          <circle r="2.2" fill="currentColor" opacity="0.16"/>
          <circle r="1.4" fill="#fff"/>
        </g>
      </symbol>
    </defs>

    <!-- Background starfield (deterministic seed-1 LCG, 60 dots). -->
    <g class="starfield">
      <circle cx="43.0" cy="271.2" r="0.9" fill="#fff" opacity="0.55"/>
      <circle cx="81.6" cy="158.5" r="0.5" fill="#fff" opacity="0.3"/>
      <circle cx="208.5" cy="252.4" r="0.5" fill="#fff" opacity="0.3"/>
      <circle cx="9.1" cy="267.4" r="0.5" fill="#fff" opacity="0.3"/>
      <circle cx="243.9" cy="0.7" r="0.5" fill="#fff" opacity="0.3"/>
      <circle cx="230.9" cy="73.2" r="0.9" fill="#fff" opacity="0.55"/>
      <circle cx="288.5" cy="9.8" r="0.5" fill="#fff" opacity="0.3"/>
      <circle cx="173.3" cy="300.5" r="0.5" fill="#fff" opacity="0.3"/>
      <circle cx="69.3" cy="135.1" r="0.5" fill="#fff" opacity="0.3"/>
      <circle cx="70.9" cy="140.1" r="0.9" fill="#fff" opacity="0.55"/>
      <circle cx="74.6" cy="73.9" r="0.5" fill="#fff" opacity="0.3"/>
      <circle cx="147.1" cy="92.7" r="0.5" fill="#fff" opacity="0.3"/>
      <circle cx="268.0" cy="178.1" r="0.9" fill="#fff" opacity="0.55"/>
      <circle cx="59.5" cy="317.6" r="0.9" fill="#fff" opacity="0.55"/>
      <circle cx="38.7" cy="106.5" r="0.9" fill="#fff" opacity="0.55"/>
      <circle cx="227.6" cy="299.7" r="0.5" fill="#fff" opacity="0.3"/>
      <circle cx="265.6" cy="214.5" r="0.5" fill="#fff" opacity="0.3"/>
      <circle cx="188.0" cy="282.4" r="0.9" fill="#fff" opacity="0.55"/>
      <circle cx="161.7" cy="188.5" r="0.5" fill="#fff" opacity="0.3"/>
      <circle cx="77.7" cy="255.2" r="0.5" fill="#fff" opacity="0.3"/>
      <circle cx="55.4" cy="175.6" r="0.9" fill="#fff" opacity="0.55"/>
      <circle cx="215.8" cy="119.9" r="0.5" fill="#fff" opacity="0.3"/>
      <circle cx="162.7" cy="249.1" r="0.9" fill="#fff" opacity="0.55"/>
      <circle cx="125.8" cy="156.7" r="0.5" fill="#fff" opacity="0.3"/>
      <circle cx="13.9" cy="225.1" r="0.9" fill="#fff" opacity="0.55"/>
      <circle cx="189.8" cy="126.0" r="0.5" fill="#fff" opacity="0.3"/>
      <circle cx="160.7" cy="314.3" r="0.9" fill="#fff" opacity="0.55"/>
      <circle cx="172.7" cy="275.3" r="0.5" fill="#fff" opacity="0.3"/>
      <circle cx="164.4" cy="304.8" r="0.9" fill="#fff" opacity="0.55"/>
      <circle cx="146.9" cy="86.2" r="0.9" fill="#fff" opacity="0.55"/>
      <circle cx="306.3" cy="1.8" r="0.9" fill="#fff" opacity="0.55"/>
      <circle cx="262.6" cy="283.6" r="0.9" fill="#fff" opacity="0.55"/>
      <circle cx="258.9" cy="166.0" r="0.9" fill="#fff" opacity="0.55"/>
      <circle cx="136.3" cy="18.0" r="0.9" fill="#fff" opacity="0.55"/>
      <circle cx="182.4" cy="63.9" r="0.9" fill="#fff" opacity="0.55"/>
      <circle cx="155.2" cy="114.2" r="0.5" fill="#fff" opacity="0.3"/>
      <circle cx="172.3" cy="199.5" r="0.9" fill="#fff" opacity="0.55"/>
      <circle cx="146.6" cy="9.0" r="0.5" fill="#fff" opacity="0.3"/>
      <circle cx="56.7" cy="187.0" r="0.9" fill="#fff" opacity="0.55"/>
      <circle cx="255.5" cy="255.1" r="0.9" fill="#fff" opacity="0.55"/>
      <circle cx="81.7" cy="269.4" r="0.9" fill="#fff" opacity="0.55"/>
      <circle cx="26.6" cy="5.3" r="0.5" fill="#fff" opacity="0.3"/>
      <circle cx="241.8" cy="79.9" r="0.5" fill="#fff" opacity="0.3"/>
      <circle cx="199.9" cy="110.2" r="0.5" fill="#fff" opacity="0.3"/>
      <circle cx="51.1" cy="168.8" r="0.5" fill="#fff" opacity="0.3"/>
      <circle cx="87.3" cy="227.7" r="0.9" fill="#fff" opacity="0.55"/>
      <circle cx="103.0" cy="151.6" r="0.5" fill="#fff" opacity="0.3"/>
      <circle cx="123.7" cy="134.7" r="0.5" fill="#fff" opacity="0.3"/>
      <circle cx="34.8" cy="287.9" r="0.9" fill="#fff" opacity="0.55"/>
      <circle cx="66.9" cy="193.8" r="0.9" fill="#fff" opacity="0.55"/>
      <circle cx="6.7" cy="5.7" r="0.5" fill="#fff" opacity="0.3"/>
      <circle cx="230.0" cy="51.3" r="0.9" fill="#fff" opacity="0.55"/>
      <circle cx="217.0" cy="174.3" r="0.5" fill="#fff" opacity="0.3"/>
      <circle cx="312.2" cy="255.3" r="0.9" fill="#fff" opacity="0.55"/>
      <circle cx="71.4" cy="207.5" r="0.5" fill="#fff" opacity="0.3"/>
      <circle cx="184.3" cy="102.8" r="0.9" fill="#fff" opacity="0.55"/>
      <circle cx="18.8" cy="95.6" r="0.9" fill="#fff" opacity="0.55"/>
      <circle cx="280.2" cy="98.0" r="0.9" fill="#fff" opacity="0.55"/>
      <circle cx="99.3" cy="300.6" r="0.9" fill="#fff" opacity="0.55"/>
      <circle cx="133.2" cy="80.8" r="0.5" fill="#fff" opacity="0.3"/>
    </g>

    <polyline class="cluster-outline" points="70.3,131.1 70.3,231.8 103.8,120.0 103.8,243.0 137.4,147.9 137.4,215.1 170.9,161.4 170.9,201.6 210.1,164.7 210.1,198.3 249.3,168.1 249.3,194.9 282.8,175.9 282.8,187.1 120.6,181.5 290.0,151.1 270.0,103.1 230.0,66.9 176.5,50.6 119.3,58.8 69.4,91.6 37.1,144.1 30.0,207.3 51.0,269.4 70.3,131.1"
              fill="none" stroke="currentColor" stroke-opacity="0.32"
              stroke-width="1.1" stroke-linejoin="round" stroke-linecap="round"/>

    <!-- One diffraction-spike marker per jump. -->
    <g class="jump-markers">
      <use href="#star-mark" x="55.3" y="116.1" width="30" height="30"/>
      <use href="#star-mark" x="55.3" y="216.8" width="30" height="30"/>
      <use href="#star-mark" x="88.8" y="105.0" width="30" height="30"/>
      <use href="#star-mark" x="88.8" y="228.0" width="30" height="30"/>
      <use href="#star-mark" x="122.4" y="132.9" width="30" height="30"/>
      <use href="#star-mark" x="122.4" y="200.1" width="30" height="30"/>
      <use href="#star-mark" x="155.9" y="146.4" width="30" height="30"/>
      <use href="#star-mark" x="155.9" y="186.6" width="30" height="30"/>
      <use href="#star-mark" x="195.1" y="149.7" width="30" height="30"/>
      <use href="#star-mark" x="195.1" y="183.3" width="30" height="30"/>
      <use href="#star-mark" x="234.3" y="153.1" width="30" height="30"/>
      <use href="#star-mark" x="234.3" y="179.9" width="30" height="30"/>
      <use href="#star-mark" x="267.8" y="160.9" width="30" height="30"/>
      <use href="#star-mark" x="267.8" y="172.1" width="30" height="30"/>
      <use href="#star-mark" x="105.6" y="166.5" width="30" height="30"/>
      <use href="#star-mark" x="275.0" y="136.1" width="30" height="30"/>
      <use href="#star-mark" x="255.0" y="88.1" width="30" height="30"/>
      <use href="#star-mark" x="215.0" y="51.9" width="30" height="30"/>
      <use href="#star-mark" x="161.5" y="35.6" width="30" height="30"/>
      <use href="#star-mark" x="104.3" y="43.8" width="30" height="30"/>
      <use href="#star-mark" x="54.4" y="76.6" width="30" height="30"/>
      <use href="#star-mark" x="22.1" y="129.1" width="30" height="30"/>
      <use href="#star-mark" x="15.0" y="192.3" width="30" height="30"/>
      <use href="#star-mark" x="36.0" y="254.4" width="30" height="30"/>
    </g>
  </svg>
