<svg xmlns="http://www.w3.org/2000/svg" viewBox="0 0 320 320" data-vertex-source="jumps"
       color="oklch(0.82 0.14 8)">
    <title>Resources and Durability</title>
    <desc>Resources and Durability as a constellation of its 23 jumps. One marker per jump.</desc>
    <defs xmlns="http://www.w3.org/2000/svg">
          <linearGradient id="ray-grad" x1="0" y1="0" x2="1" y2="0">
            <stop offset="0" stop-color="transparent"/>
            <stop offset="0.48" stop-color="#fff" stop-opacity="0.58"/>
            <stop offset="0.50" stop-color="#fff" stop-opacity="0.92"/>
            <stop offset="0.52" stop-color="#fff" stop-opacity="0.58"/>
            <stop offset="1" stop-color="transparent"/>
          </linearGradient>
          <symbol id="star-mark" viewBox="-50 -50 100 100" overflow="visible">
            <g filter="drop-shadow(0 0 1px #fff) drop-shadow(0 0 3px currentColor)" opacity="0.76">
              <g opacity="0.68" style="mix-blend-mode:screen">
                <rect x="-32.00" y="-0.390" width="64.00" height="0.780" rx="0.390" fill="url(#ray-grad)" transform="rotate(-3.00)"/>
                <rect x="-32.00" y="-0.390" width="64.00" height="0.780" rx="0.390" fill="url(#ray-grad)" transform="rotate(63.00)"/>
                <rect x="-32.00" y="-0.390" width="64.00" height="0.780" rx="0.390" fill="url(#ray-grad)" transform="rotate(117.00)"/>
                <rect x="-32.00" y="-0.390" width="64.00" height="0.780" rx="0.390" fill="url(#ray-grad)" transform="rotate(183.00)"/>
                <rect x="-32.00" y="-0.390" width="64.00" height="0.780" rx="0.390" fill="url(#ray-grad)" transform="rotate(237.00)"/>
                <rect x="-32.00" y="-0.390" width="64.00" height="0.780" rx="0.390" fill="url(#ray-grad)" transform="rotate(303.00)"/>
              </g>
              <g opacity="0.32" style="mix-blend-mode:screen">
                <rect x="-18.00" y="-0.125" width="36.00" height="0.250" rx="0.125" fill="url(#ray-grad)" transform="rotate(27.00)"/>
                <rect x="-18.00" y="-0.125" width="36.00" height="0.250" rx="0.125" fill="url(#ray-grad)" transform="rotate(93.00)"/>
                <rect x="-18.00" y="-0.125" width="36.00" height="0.250" rx="0.125" fill="url(#ray-grad)" transform="rotate(147.00)"/>
                <rect x="-18.00" y="-0.125" width="36.00" height="0.250" rx="0.125" fill="url(#ray-grad)" transform="rotate(213.00)"/>
                <rect x="-18.00" y="-0.125" width="36.00" height="0.250" rx="0.125" fill="url(#ray-grad)" transform="rotate(267.00)"/>
                <rect x="-18.00" y="-0.125" width="36.00" height="0.250" rx="0.125" fill="url(#ray-grad)" transform="rotate(333.00)"/>
              </g>
              <circle r="2.2" fill="currentColor" opacity="0.16"/>
              <circle r="1.4" fill="#fff"/>
            </g>
          </symbol>
        </defs>

    <!-- Wireframe edges edited in tracing-workbench.html. -->
    <polyline class="cluster-outline" fill="none" stroke="currentColor" stroke-opacity="0.32" stroke-width="1.1" stroke-linejoin="round" stroke-linecap="round" points="100,50 220,50"/>
    <polyline class="cluster-outline" fill="none" stroke="currentColor" stroke-opacity="0.32" stroke-width="1.1" stroke-linejoin="round" stroke-linecap="round" points="220,50 230,60"/>
    <polyline class="cluster-outline" fill="none" stroke="currentColor" stroke-opacity="0.32" stroke-width="1.1" stroke-linejoin="round" stroke-linecap="round" points="230,60 320,60"/>
    <polyline class="cluster-outline" fill="none" stroke="currentColor" stroke-opacity="0.32" stroke-width="1.1" stroke-linejoin="round" stroke-linecap="round" points="320,60 320,70"/>
    <polyline class="cluster-outline" fill="none" stroke="currentColor" stroke-opacity="0.32" stroke-width="1.1" stroke-linejoin="round" stroke-linecap="round" points="100,50 90,60"/>
    <polyline class="cluster-outline" fill="none" stroke="currentColor" stroke-opacity="0.32" stroke-width="1.1" stroke-linejoin="round" stroke-linecap="round" points="90,60 0,60"/>
    <polyline class="cluster-outline" fill="none" stroke="currentColor" stroke-opacity="0.32" stroke-width="1.1" stroke-linejoin="round" stroke-linecap="round" points="0,60 0,70"/>
    <polyline class="cluster-outline" fill="none" stroke="currentColor" stroke-opacity="0.32" stroke-width="1.1" stroke-linejoin="round" stroke-linecap="round" points="60,180 260,180"/>
    <polyline class="cluster-outline" fill="none" stroke="currentColor" stroke-opacity="0.32" stroke-width="1.1" stroke-linejoin="round" stroke-linecap="round" points="260,180 240,160"/>
    <polyline class="cluster-outline" fill="none" stroke="currentColor" stroke-opacity="0.32" stroke-width="1.1" stroke-linejoin="round" stroke-linecap="round" points="80,160 60,180"/>
    <polyline class="cluster-outline" fill="none" stroke="currentColor" stroke-opacity="0.32" stroke-width="1.1" stroke-linejoin="round" stroke-linecap="round" points="80,160 100,150"/>
    <polyline class="cluster-outline" fill="none" stroke="currentColor" stroke-opacity="0.32" stroke-width="1.1" stroke-linejoin="round" stroke-linecap="round" points="240,160 220,150"/>
    <polyline class="cluster-outline" fill="none" stroke="currentColor" stroke-opacity="0.32" stroke-width="1.1" stroke-linejoin="round" stroke-linecap="round" points="0,70 50,80"/>
    <polyline class="cluster-outline" fill="none" stroke="currentColor" stroke-opacity="0.32" stroke-width="1.1" stroke-linejoin="round" stroke-linecap="round" points="320,70 310,80"/>
    <polyline class="cluster-outline" fill="none" stroke="currentColor" stroke-opacity="0.32" stroke-width="1.1" stroke-linejoin="round" stroke-linecap="round" points="310,80 280,90"/>
    <polyline class="cluster-outline" fill="none" stroke="currentColor" stroke-opacity="0.32" stroke-width="1.1" stroke-linejoin="round" stroke-linecap="round" points="260,100 230,110 220,120"/>
    <polyline class="cluster-outline" fill="none" stroke="currentColor" stroke-opacity="0.32" stroke-width="1.1" stroke-linejoin="round" stroke-linecap="round" points="50,80 80,90"/>
    <polyline class="cluster-outline" fill="none" stroke="currentColor" stroke-opacity="0.32" stroke-width="1.1" stroke-linejoin="round" stroke-linecap="round" points="80,90 90,100 100,120"/>
    <polyline class="cluster-outline" fill="none" stroke="currentColor" stroke-opacity="0.32" stroke-width="1.1" stroke-linejoin="round" stroke-linecap="round" points="100,120 100,150"/>
    <polyline class="cluster-outline" fill="none" stroke="currentColor" stroke-opacity="0.32" stroke-width="1.1" stroke-linejoin="round" stroke-linecap="round" points="220,120 220,150"/>
    <polyline class="cluster-outline" fill="none" stroke="currentColor" stroke-opacity="0.32" stroke-width="1.1" stroke-linejoin="round" stroke-linecap="round" points="260,100 280,90"/>

    <!-- One diffraction-spike marker per unique vertex. -->
    <g class="jump-markers">
      <use href="#star-mark" x="75" y="45" width="30" height="30"/>
      <use href="#star-mark" x="-15" y="55" width="30" height="30"/>
      <use href="#star-mark" x="305" y="45" width="30" height="30"/>
      <use href="#star-mark" x="35" y="65" width="30" height="30"/>
      <use href="#star-mark" x="295" y="65" width="30" height="30"/>
      <use href="#star-mark" x="85" y="135" width="30" height="30"/>
      <use href="#star-mark" x="205" y="135" width="30" height="30"/>
      <use href="#star-mark" x="65" y="145" width="30" height="30"/>
      <use href="#star-mark" x="225" y="145" width="30" height="30"/>
      <use href="#star-mark" x="245" y="165" width="30" height="30"/>
      <use href="#star-mark" x="65" y="75" width="30" height="30"/>
      <use href="#star-mark" x="205" y="105" width="30" height="30"/>
      <use href="#star-mark" x="265" y="75" width="30" height="30"/>
      <use href="#star-mark" x="305" y="55" width="30" height="30"/>
      <use href="#star-mark" x="215" y="45" width="30" height="30"/>
      <use href="#star-mark" x="205" y="35" width="30" height="30"/>
      <use href="#star-mark" x="85" y="35" width="30" height="30"/>
      <use href="#star-mark" x="-15" y="45" width="30" height="30"/>
      <use href="#star-mark" x="85" y="105" width="30" height="30"/>
      <use href="#star-mark" x="45" y="165" width="30" height="30"/>
      <use href="#star-mark" x="75" y="85" width="30" height="30"/>
      <use href="#star-mark" x="245" y="85" width="30" height="30"/>
      <use href="#star-mark" x="215" y="95" width="30" height="30"/>
    </g>
  </svg>
