<svg xmlns="http://www.w3.org/2000/svg" viewBox="0 0 320 320" data-vertex-source="jumps"
       color="oklch(0.82 0.14 48)">
    <title>Quality</title>
    <desc>Quality as a constellation of its 20 jumps. One marker per jump.</desc>
    <defs xmlns="http://www.w3.org/2000/svg">
          <linearGradient id="ray-grad" x1="0" y1="0" x2="1" y2="0">
            <stop offset="0" stop-color="transparent"/>
            <stop offset="0.48" stop-color="#fff" stop-opacity="0.58"/>
            <stop offset="0.50" stop-color="#fff" stop-opacity="0.92"/>
            <stop offset="0.52" stop-color="#fff" stop-opacity="0.58"/>
            <stop offset="1" stop-color="transparent"/>
          </linearGradient>
          <symbol id="star-mark" viewBox="-50 -50 100 100" overflow="visible">
            <g filter="drop-shadow(0 0 1px #fff) drop-shadow(0 0 3px currentColor)" opacity="0.76">
              <g opacity="0.68" style="mix-blend-mode:screen">
                <rect x="-32.00" y="-0.390" width="64.00" height="0.780" rx="0.390" fill="url(#ray-grad)" transform="rotate(-3.00)"/>
                <rect x="-32.00" y="-0.390" width="64.00" height="0.780" rx="0.390" fill="url(#ray-grad)" transform="rotate(63.00)"/>
                <rect x="-32.00" y="-0.390" width="64.00" height="0.780" rx="0.390" fill="url(#ray-grad)" transform="rotate(117.00)"/>
                <rect x="-32.00" y="-0.390" width="64.00" height="0.780" rx="0.390" fill="url(#ray-grad)" transform="rotate(183.00)"/>
                <rect x="-32.00" y="-0.390" width="64.00" height="0.780" rx="0.390" fill="url(#ray-grad)" transform="rotate(237.00)"/>
                <rect x="-32.00" y="-0.390" width="64.00" height="0.780" rx="0.390" fill="url(#ray-grad)" transform="rotate(303.00)"/>
              </g>
              <g opacity="0.32" style="mix-blend-mode:screen">
                <rect x="-18.00" y="-0.125" width="36.00" height="0.250" rx="0.125" fill="url(#ray-grad)" transform="rotate(27.00)"/>
                <rect x="-18.00" y="-0.125" width="36.00" height="0.250" rx="0.125" fill="url(#ray-grad)" transform="rotate(93.00)"/>
                <rect x="-18.00" y="-0.125" width="36.00" height="0.250" rx="0.125" fill="url(#ray-grad)" transform="rotate(147.00)"/>
                <rect x="-18.00" y="-0.125" width="36.00" height="0.250" rx="0.125" fill="url(#ray-grad)" transform="rotate(213.00)"/>
                <rect x="-18.00" y="-0.125" width="36.00" height="0.250" rx="0.125" fill="url(#ray-grad)" transform="rotate(267.00)"/>
                <rect x="-18.00" y="-0.125" width="36.00" height="0.250" rx="0.125" fill="url(#ray-grad)" transform="rotate(333.00)"/>
              </g>
              <circle r="2.2" fill="currentColor" opacity="0.16"/>
              <circle r="1.4" fill="#fff"/>
            </g>
          </symbol>
        </defs>

    <!-- Wireframe edges edited in tracing-workbench.html. -->
    <polyline class="cluster-outline" fill="none" stroke="currentColor" stroke-opacity="0.32" stroke-width="1.1" stroke-linejoin="round" stroke-linecap="round" points="160,20 70,30"/>
    <polyline class="cluster-outline" fill="none" stroke="currentColor" stroke-opacity="0.32" stroke-width="1.1" stroke-linejoin="round" stroke-linecap="round" points="160,20 250,30"/>
    <polyline class="cluster-outline" fill="none" stroke="currentColor" stroke-opacity="0.32" stroke-width="1.1" stroke-linejoin="round" stroke-linecap="round" points="10,120 70,120"/>
    <polyline class="cluster-outline" fill="none" stroke="currentColor" stroke-opacity="0.32" stroke-width="1.1" stroke-linejoin="round" stroke-linecap="round" points="70,120 250,120"/>
    <polyline class="cluster-outline" fill="none" stroke="currentColor" stroke-opacity="0.32" stroke-width="1.1" stroke-linejoin="round" stroke-linecap="round" points="250,120 310,120"/>
    <polyline class="cluster-outline" fill="none" stroke="currentColor" stroke-opacity="0.32" stroke-width="1.1" stroke-linejoin="round" stroke-linecap="round" points="250,120 250,30"/>
    <polyline class="cluster-outline" fill="none" stroke="currentColor" stroke-opacity="0.32" stroke-width="1.1" stroke-linejoin="round" stroke-linecap="round" points="70,120 70,30"/>
    <polyline class="cluster-outline" fill="none" stroke="currentColor" stroke-opacity="0.32" stroke-width="1.1" stroke-linejoin="round" stroke-linecap="round" points="160,20 120,70"/>
    <polyline class="cluster-outline" fill="none" stroke="currentColor" stroke-opacity="0.32" stroke-width="1.1" stroke-linejoin="round" stroke-linecap="round" points="120,70 70,120"/>
    <polyline class="cluster-outline" fill="none" stroke="currentColor" stroke-opacity="0.32" stroke-width="1.1" stroke-linejoin="round" stroke-linecap="round" points="160,20 200,70"/>
    <polyline class="cluster-outline" fill="none" stroke="currentColor" stroke-opacity="0.32" stroke-width="1.1" stroke-linejoin="round" stroke-linecap="round" points="200,70 250,120"/>
    <polyline class="cluster-outline" fill="none" stroke="currentColor" stroke-opacity="0.32" stroke-width="1.1" stroke-linejoin="round" stroke-linecap="round" points="250,30 290,90"/>
    <polyline class="cluster-outline" fill="none" stroke="currentColor" stroke-opacity="0.32" stroke-width="1.1" stroke-linejoin="round" stroke-linecap="round" points="290,90 310,120"/>
    <polyline class="cluster-outline" fill="none" stroke="currentColor" stroke-opacity="0.32" stroke-width="1.1" stroke-linejoin="round" stroke-linecap="round" points="310,120 270,170"/>
    <polyline class="cluster-outline" fill="none" stroke="currentColor" stroke-opacity="0.32" stroke-width="1.1" stroke-linejoin="round" stroke-linecap="round" points="270,170 160,300"/>
    <polyline class="cluster-outline" fill="none" stroke="currentColor" stroke-opacity="0.32" stroke-width="1.1" stroke-linejoin="round" stroke-linecap="round" points="160,300 50,170"/>
    <polyline class="cluster-outline" fill="none" stroke="currentColor" stroke-opacity="0.32" stroke-width="1.1" stroke-linejoin="round" stroke-linecap="round" points="50,170 10,120"/>
    <polyline class="cluster-outline" fill="none" stroke="currentColor" stroke-opacity="0.32" stroke-width="1.1" stroke-linejoin="round" stroke-linecap="round" points="10,120 30,90"/>
    <polyline class="cluster-outline" fill="none" stroke="currentColor" stroke-opacity="0.32" stroke-width="1.1" stroke-linejoin="round" stroke-linecap="round" points="30,90 70,30"/>
    <polyline class="cluster-outline" fill="none" stroke="currentColor" stroke-opacity="0.32" stroke-width="1.1" stroke-linejoin="round" stroke-linecap="round" points="70,120 100,180"/>
    <polyline class="cluster-outline" fill="none" stroke="currentColor" stroke-opacity="0.32" stroke-width="1.1" stroke-linejoin="round" stroke-linecap="round" points="100,180 150,290"/>
    <polyline class="cluster-outline" fill="none" stroke="currentColor" stroke-opacity="0.32" stroke-width="1.1" stroke-linejoin="round" stroke-linecap="round" points="170,290 220,180"/>
    <polyline class="cluster-outline" fill="none" stroke="currentColor" stroke-opacity="0.32" stroke-width="1.1" stroke-linejoin="round" stroke-linecap="round" points="220,180 250,120"/>

    <!-- One diffraction-spike marker per unique vertex. -->
    <g class="jump-markers">
      <use href="#star-mark" x="185" y="55" width="30" height="30"/>
      <use href="#star-mark" x="15" y="75" width="30" height="30"/>
      <use href="#star-mark" x="275" y="75" width="30" height="30"/>
      <use href="#star-mark" x="55" y="105" width="30" height="30"/>
      <use href="#star-mark" x="235" y="105" width="30" height="30"/>
      <use href="#star-mark" x="-5" y="105" width="30" height="30"/>
      <use href="#star-mark" x="205" y="165" width="30" height="30"/>
      <use href="#star-mark" x="85" y="165" width="30" height="30"/>
      <use href="#star-mark" x="155" y="275" width="30" height="30"/>
      <use href="#star-mark" x="145" y="285" width="30" height="30"/>
      <use href="#star-mark" x="115" y="105" width="30" height="30"/>
      <use href="#star-mark" x="175" y="105" width="30" height="30"/>
      <use href="#star-mark" x="135" y="275" width="30" height="30"/>
      <use href="#star-mark" x="295" y="105" width="30" height="30"/>
      <use href="#star-mark" x="35" y="155" width="30" height="30"/>
      <use href="#star-mark" x="235" y="15" width="30" height="30"/>
      <use href="#star-mark" x="145" y="5" width="30" height="30"/>
      <use href="#star-mark" x="55" y="15" width="30" height="30"/>
      <use href="#star-mark" x="255" y="155" width="30" height="30"/>
      <use href="#star-mark" x="105" y="55" width="30" height="30"/>
    </g>
  </svg>
