<svg xmlns="http://www.w3.org/2000/svg" viewBox="0 0 320 320" data-vertex-source="jumps"
       color="oklch(0.82 0.14 48)">
    <title>Quality</title>
    <desc>Quality as a constellation of its 20 jumps. One marker per jump.</desc>
    <defs xmlns="http://www.w3.org/2000/svg">
          <linearGradient id="ray-grad" x1="0" y1="0" x2="1" y2="0">
            <stop offset="0" stop-color="transparent"/>
            <stop offset="0.48" stop-color="#fff" stop-opacity="0.58"/>
            <stop offset="0.50" stop-color="#fff" stop-opacity="0.92"/>
            <stop offset="0.52" stop-color="#fff" stop-opacity="0.58"/>
            <stop offset="1" stop-color="transparent"/>
          </linearGradient>
          <symbol id="star-mark" viewBox="-50 -50 100 100" overflow="visible">
            <g filter="drop-shadow(0 0 1px #fff) drop-shadow(0 0 3px currentColor)" opacity="0.76">
              <g opacity="0.68" style="mix-blend-mode:screen">
                <rect x="-32.00" y="-0.390" width="64.00" height="0.780" rx="0.390" fill="url(#ray-grad)" transform="rotate(-3.00)"/>
                <rect x="-32.00" y="-0.390" width="64.00" height="0.780" rx="0.390" fill="url(#ray-grad)" transform="rotate(63.00)"/>
                <rect x="-32.00" y="-0.390" width="64.00" height="0.780" rx="0.390" fill="url(#ray-grad)" transform="rotate(117.00)"/>
                <rect x="-32.00" y="-0.390" width="64.00" height="0.780" rx="0.390" fill="url(#ray-grad)" transform="rotate(183.00)"/>
                <rect x="-32.00" y="-0.390" width="64.00" height="0.780" rx="0.390" fill="url(#ray-grad)" transform="rotate(237.00)"/>
                <rect x="-32.00" y="-0.390" width="64.00" height="0.780" rx="0.390" fill="url(#ray-grad)" transform="rotate(303.00)"/>
              </g>
              <g opacity="0.32" style="mix-blend-mode:screen">
                <rect x="-18.00" y="-0.125" width="36.00" height="0.250" rx="0.125" fill="url(#ray-grad)" transform="rotate(27.00)"/>
                <rect x="-18.00" y="-0.125" width="36.00" height="0.250" rx="0.125" fill="url(#ray-grad)" transform="rotate(93.00)"/>
                <rect x="-18.00" y="-0.125" width="36.00" height="0.250" rx="0.125" fill="url(#ray-grad)" transform="rotate(147.00)"/>
                <rect x="-18.00" y="-0.125" width="36.00" height="0.250" rx="0.125" fill="url(#ray-grad)" transform="rotate(213.00)"/>
                <rect x="-18.00" y="-0.125" width="36.00" height="0.250" rx="0.125" fill="url(#ray-grad)" transform="rotate(267.00)"/>
                <rect x="-18.00" y="-0.125" width="36.00" height="0.250" rx="0.125" fill="url(#ray-grad)" transform="rotate(333.00)"/>
              </g>
              <circle r="2.2" fill="currentColor" opacity="0.16"/>
              <circle r="1.4" fill="#fff"/>
            </g>
          </symbol>
        </defs>

    <!-- Wireframe edges edited in tracing-workbench.html. -->
    <polyline class="cluster-outline" fill="none" stroke="currentColor" stroke-opacity="0.32" stroke-width="1.1" stroke-linejoin="round" stroke-linecap="round" points="160.0,31.5 79.0,40.5"/>
    <polyline class="cluster-outline" fill="none" stroke="currentColor" stroke-opacity="0.32" stroke-width="1.1" stroke-linejoin="round" stroke-linecap="round" points="160.0,31.5 241.0,40.5"/>
    <polyline class="cluster-outline" fill="none" stroke="currentColor" stroke-opacity="0.32" stroke-width="1.1" stroke-linejoin="round" stroke-linecap="round" points="25.0,121.5 79.0,121.5"/>
    <polyline class="cluster-outline" fill="none" stroke="currentColor" stroke-opacity="0.32" stroke-width="1.1" stroke-linejoin="round" stroke-linecap="round" points="79.0,121.5 241.0,121.5"/>
    <polyline class="cluster-outline" fill="none" stroke="currentColor" stroke-opacity="0.32" stroke-width="1.1" stroke-linejoin="round" stroke-linecap="round" points="241.0,121.5 295.0,121.5"/>
    <polyline class="cluster-outline" fill="none" stroke="currentColor" stroke-opacity="0.32" stroke-width="1.1" stroke-linejoin="round" stroke-linecap="round" points="241.0,121.5 241.0,40.5"/>
    <polyline class="cluster-outline" fill="none" stroke="currentColor" stroke-opacity="0.32" stroke-width="1.1" stroke-linejoin="round" stroke-linecap="round" points="79.0,121.5 79.0,40.5"/>
    <polyline class="cluster-outline" fill="none" stroke="currentColor" stroke-opacity="0.32" stroke-width="1.1" stroke-linejoin="round" stroke-linecap="round" points="160.0,31.5 124.0,76.5"/>
    <polyline class="cluster-outline" fill="none" stroke="currentColor" stroke-opacity="0.32" stroke-width="1.1" stroke-linejoin="round" stroke-linecap="round" points="124.0,76.5 79.0,121.5"/>
    <polyline class="cluster-outline" fill="none" stroke="currentColor" stroke-opacity="0.32" stroke-width="1.1" stroke-linejoin="round" stroke-linecap="round" points="160.0,31.5 196.0,76.5"/>
    <polyline class="cluster-outline" fill="none" stroke="currentColor" stroke-opacity="0.32" stroke-width="1.1" stroke-linejoin="round" stroke-linecap="round" points="196.0,76.5 241.0,121.5"/>
    <polyline class="cluster-outline" fill="none" stroke="currentColor" stroke-opacity="0.32" stroke-width="1.1" stroke-linejoin="round" stroke-linecap="round" points="241.0,40.5 277.0,94.5"/>
    <polyline class="cluster-outline" fill="none" stroke="currentColor" stroke-opacity="0.32" stroke-width="1.1" stroke-linejoin="round" stroke-linecap="round" points="277.0,94.5 295.0,121.5"/>
    <polyline class="cluster-outline" fill="none" stroke="currentColor" stroke-opacity="0.32" stroke-width="1.1" stroke-linejoin="round" stroke-linecap="round" points="295.0,121.5 259.0,166.5"/>
    <polyline class="cluster-outline" fill="none" stroke="currentColor" stroke-opacity="0.32" stroke-width="1.1" stroke-linejoin="round" stroke-linecap="round" points="259.0,166.5 160.0,283.5"/>
    <polyline class="cluster-outline" fill="none" stroke="currentColor" stroke-opacity="0.32" stroke-width="1.1" stroke-linejoin="round" stroke-linecap="round" points="160.0,283.5 61.0,166.5"/>
    <polyline class="cluster-outline" fill="none" stroke="currentColor" stroke-opacity="0.32" stroke-width="1.1" stroke-linejoin="round" stroke-linecap="round" points="61.0,166.5 25.0,121.5"/>
    <polyline class="cluster-outline" fill="none" stroke="currentColor" stroke-opacity="0.32" stroke-width="1.1" stroke-linejoin="round" stroke-linecap="round" points="25.0,121.5 43.0,94.5"/>
    <polyline class="cluster-outline" fill="none" stroke="currentColor" stroke-opacity="0.32" stroke-width="1.1" stroke-linejoin="round" stroke-linecap="round" points="43.0,94.5 79.0,40.5"/>
    <polyline class="cluster-outline" fill="none" stroke="currentColor" stroke-opacity="0.32" stroke-width="1.1" stroke-linejoin="round" stroke-linecap="round" points="79.0,121.5 106.0,175.5"/>
    <polyline class="cluster-outline" fill="none" stroke="currentColor" stroke-opacity="0.32" stroke-width="1.1" stroke-linejoin="round" stroke-linecap="round" points="106.0,175.5 151.0,274.5"/>
    <polyline class="cluster-outline" fill="none" stroke="currentColor" stroke-opacity="0.32" stroke-width="1.1" stroke-linejoin="round" stroke-linecap="round" points="169.0,274.5 214.0,175.5"/>
    <polyline class="cluster-outline" fill="none" stroke="currentColor" stroke-opacity="0.32" stroke-width="1.1" stroke-linejoin="round" stroke-linecap="round" points="214.0,175.5 241.0,121.5"/>

    <!-- One diffraction-spike marker per unique vertex. -->
    <g class="jump-markers">
      <use href="#star-mark" x="181.0" y="61.5" width="30" height="30"/>
      <use href="#star-mark" x="28.0" y="79.5" width="30" height="30"/>
      <use href="#star-mark" x="262.0" y="79.5" width="30" height="30"/>
      <use href="#star-mark" x="64.0" y="106.5" width="30" height="30"/>
      <use href="#star-mark" x="226.0" y="106.5" width="30" height="30"/>
      <use href="#star-mark" x="10.0" y="106.5" width="30" height="30"/>
      <use href="#star-mark" x="199.0" y="160.5" width="30" height="30"/>
      <use href="#star-mark" x="91.0" y="160.5" width="30" height="30"/>
      <use href="#star-mark" x="154.0" y="259.5" width="30" height="30"/>
      <use href="#star-mark" x="145.0" y="268.5" width="30" height="30"/>
      <use href="#star-mark" x="118.0" y="106.5" width="30" height="30"/>
      <use href="#star-mark" x="172.0" y="106.5" width="30" height="30"/>
      <use href="#star-mark" x="136.0" y="259.5" width="30" height="30"/>
      <use href="#star-mark" x="280.0" y="106.5" width="30" height="30"/>
      <use href="#star-mark" x="46.0" y="151.5" width="30" height="30"/>
      <use href="#star-mark" x="226.0" y="25.5" width="30" height="30"/>
      <use href="#star-mark" x="145.0" y="16.5" width="30" height="30"/>
      <use href="#star-mark" x="64.0" y="25.5" width="30" height="30"/>
      <use href="#star-mark" x="244.0" y="151.5" width="30" height="30"/>
      <use href="#star-mark" x="109.0" y="61.5" width="30" height="30"/>
    </g>
  </svg>
