<svg xmlns="http://www.w3.org/2000/svg" viewBox="0 0 320 320"
       color="oklch(0.82 0.14 152)">
    <title>Crafting</title>
    <desc>Crafting as a constellation of its 16 jumps. One marker per jump.</desc>
    <defs xmlns="http://www.w3.org/2000/svg">
          <linearGradient id="ray-grad" x1="0" y1="0" x2="1" y2="0">
            <stop offset="0" stop-color="transparent"/>
            <stop offset="0.48" stop-color="#fff" stop-opacity="0.58"/>
            <stop offset="0.50" stop-color="#fff" stop-opacity="0.92"/>
            <stop offset="0.52" stop-color="#fff" stop-opacity="0.58"/>
            <stop offset="1" stop-color="transparent"/>
          </linearGradient>
          <symbol id="star-mark" viewBox="-50 -50 100 100" overflow="visible">
            <g filter="drop-shadow(0 0 1px #fff) drop-shadow(0 0 3px currentColor)" opacity="0.76">
              <g opacity="0.68" style="mix-blend-mode:screen">
                <rect x="-32.00" y="-0.390" width="64.00" height="0.780" rx="0.390" fill="url(#ray-grad)" transform="rotate(-3.00)"/>
                <rect x="-32.00" y="-0.390" width="64.00" height="0.780" rx="0.390" fill="url(#ray-grad)" transform="rotate(63.00)"/>
                <rect x="-32.00" y="-0.390" width="64.00" height="0.780" rx="0.390" fill="url(#ray-grad)" transform="rotate(117.00)"/>
                <rect x="-32.00" y="-0.390" width="64.00" height="0.780" rx="0.390" fill="url(#ray-grad)" transform="rotate(183.00)"/>
                <rect x="-32.00" y="-0.390" width="64.00" height="0.780" rx="0.390" fill="url(#ray-grad)" transform="rotate(237.00)"/>
                <rect x="-32.00" y="-0.390" width="64.00" height="0.780" rx="0.390" fill="url(#ray-grad)" transform="rotate(303.00)"/>
              </g>
              <g opacity="0.32" style="mix-blend-mode:screen">
                <rect x="-18.00" y="-0.125" width="36.00" height="0.250" rx="0.125" fill="url(#ray-grad)" transform="rotate(27.00)"/>
                <rect x="-18.00" y="-0.125" width="36.00" height="0.250" rx="0.125" fill="url(#ray-grad)" transform="rotate(93.00)"/>
                <rect x="-18.00" y="-0.125" width="36.00" height="0.250" rx="0.125" fill="url(#ray-grad)" transform="rotate(147.00)"/>
                <rect x="-18.00" y="-0.125" width="36.00" height="0.250" rx="0.125" fill="url(#ray-grad)" transform="rotate(213.00)"/>
                <rect x="-18.00" y="-0.125" width="36.00" height="0.250" rx="0.125" fill="url(#ray-grad)" transform="rotate(267.00)"/>
                <rect x="-18.00" y="-0.125" width="36.00" height="0.250" rx="0.125" fill="url(#ray-grad)" transform="rotate(333.00)"/>
              </g>
              <circle r="2.2" fill="currentColor" opacity="0.16"/>
              <circle r="1.4" fill="#fff"/>
            </g>
          </symbol>
        </defs>

    <!-- Wireframe edges edited in tracing-workbench.html. -->
    <polyline class="cluster-outline" fill="none" stroke="currentColor" stroke-opacity="0.32" stroke-width="1.1" stroke-linejoin="round" stroke-linecap="round" points="10,100 40,150 60,120 90,100 120,110"/>
    <polyline class="cluster-outline" fill="none" stroke="currentColor" stroke-opacity="0.32" stroke-width="1.1" stroke-linejoin="round" stroke-linecap="round" points="270,300 300,270 150,90 140,60 180,40 220,40 210,20 140,20 80,40 60,70 40,90 10,100"/>
    <polyline class="cluster-outline" fill="none" stroke="currentColor" stroke-opacity="0.32" stroke-width="1.1" stroke-linejoin="round" stroke-linecap="round" points="120,110 150,90"/>
    <polyline class="cluster-outline" fill="none" stroke="currentColor" stroke-opacity="0.32" stroke-width="1.1" stroke-linejoin="round" stroke-linecap="round" points="120,110 270,300"/>

    <!-- One diffraction-spike marker per unique vertex. -->
    <g class="jump-markers">
      <use href="#star-mark" x="-5" y="85" width="30" height="30"/>
      <use href="#star-mark" x="25" y="135" width="30" height="30"/>
      <use href="#star-mark" x="75" y="85" width="30" height="30"/>
      <use href="#star-mark" x="105" y="95" width="30" height="30"/>
      <use href="#star-mark" x="255" y="285" width="30" height="30"/>
      <use href="#star-mark" x="285" y="255" width="30" height="30"/>
      <use href="#star-mark" x="135" y="75" width="30" height="30"/>
      <use href="#star-mark" x="125" y="45" width="30" height="30"/>
      <use href="#star-mark" x="205" y="25" width="30" height="30"/>
      <use href="#star-mark" x="195" y="5" width="30" height="30"/>
      <use href="#star-mark" x="125" y="5" width="30" height="30"/>
      <use href="#star-mark" x="165" y="25" width="30" height="30"/>
      <use href="#star-mark" x="65" y="25" width="30" height="30"/>
      <use href="#star-mark" x="45" y="55" width="30" height="30"/>
      <use href="#star-mark" x="25" y="75" width="30" height="30"/>
      <use href="#star-mark" x="45" y="105" width="30" height="30"/>
    </g>
  </svg>
