<svg xmlns="http://www.w3.org/2000/svg" viewBox="0 0 320 320"
       color="oklch(0.82 0.14 286)"
       style="background: radial-gradient(circle at 50% 60%, #07121a 0%, #03080d 75%)">
    <title>Magic</title>
    <desc>Magic as a constellation of its 14 jumps. One marker per jump.</desc>
    <defs>
      <linearGradient id="ray-grad" x1="0" y1="0" x2="1" y2="0">
        <stop offset="0"    stop-color="transparent"/>
        <stop offset="0.48" stop-color="#fff" stop-opacity="0.58"/>
        <stop offset="0.50" stop-color="#fff" stop-opacity="0.92"/>
        <stop offset="0.52" stop-color="#fff" stop-opacity="0.58"/>
        <stop offset="1"    stop-color="transparent"/>
      </linearGradient>
      <symbol id="star-mark" viewBox="-50 -50 100 100" overflow="visible">
        <g filter="drop-shadow(0 0 1px #fff) drop-shadow(0 0 3px currentColor)" opacity="0.76">
          <g opacity="0.68" style="mix-blend-mode:screen">
            <rect x="-32.00" y="-0.390" width="64.00" height="0.780" rx="0.390" fill="url(#ray-grad)" transform="rotate(-3.00)"/>
            <rect x="-32.00" y="-0.390" width="64.00" height="0.780" rx="0.390" fill="url(#ray-grad)" transform="rotate(63.00)"/>
            <rect x="-32.00" y="-0.390" width="64.00" height="0.780" rx="0.390" fill="url(#ray-grad)" transform="rotate(117.00)"/>
            <rect x="-32.00" y="-0.390" width="64.00" height="0.780" rx="0.390" fill="url(#ray-grad)" transform="rotate(183.00)"/>
            <rect x="-32.00" y="-0.390" width="64.00" height="0.780" rx="0.390" fill="url(#ray-grad)" transform="rotate(237.00)"/>
            <rect x="-32.00" y="-0.390" width="64.00" height="0.780" rx="0.390" fill="url(#ray-grad)" transform="rotate(303.00)"/>
          </g>
          <g opacity="0.32" style="mix-blend-mode:screen">
            <rect x="-18.00" y="-0.125" width="36.00" height="0.250" rx="0.125" fill="url(#ray-grad)" transform="rotate(27.00)"/>
            <rect x="-18.00" y="-0.125" width="36.00" height="0.250" rx="0.125" fill="url(#ray-grad)" transform="rotate(93.00)"/>
            <rect x="-18.00" y="-0.125" width="36.00" height="0.250" rx="0.125" fill="url(#ray-grad)" transform="rotate(147.00)"/>
            <rect x="-18.00" y="-0.125" width="36.00" height="0.250" rx="0.125" fill="url(#ray-grad)" transform="rotate(213.00)"/>
            <rect x="-18.00" y="-0.125" width="36.00" height="0.250" rx="0.125" fill="url(#ray-grad)" transform="rotate(267.00)"/>
            <rect x="-18.00" y="-0.125" width="36.00" height="0.250" rx="0.125" fill="url(#ray-grad)" transform="rotate(333.00)"/>
          </g>
          <circle r="2.2" fill="currentColor" opacity="0.16"/>
          <circle r="1.4" fill="#fff"/>
        </g>
      </symbol>
    </defs>

    <!-- Background starfield (deterministic seed-7 LCG, 60 dots). -->
    <g class="starfield">
      <circle cx="103.6" cy="48.3" r="0.9" fill="#fff" opacity="0.55"/>
      <circle cx="23.2" cy="171.5" r="0.5" fill="#fff" opacity="0.3"/>
      <circle cx="18.6" cy="162.4" r="0.5" fill="#fff" opacity="0.3"/>
      <circle cx="138.8" cy="22.4" r="0.5" fill="#fff" opacity="0.3"/>
      <circle cx="135.8" cy="264.6" r="0.5" fill="#fff" opacity="0.3"/>
      <circle cx="71.4" cy="200.8" r="0.9" fill="#fff" opacity="0.55"/>
      <circle cx="184.7" cy="126.9" r="0.9" fill="#fff" opacity="0.55"/>
      <circle cx="14.9" cy="274.7" r="0.5" fill="#fff" opacity="0.3"/>
      <circle cx="46.2" cy="37.7" r="0.5" fill="#fff" opacity="0.3"/>
      <circle cx="261.2" cy="57.8" r="0.9" fill="#fff" opacity="0.55"/>
      <circle cx="204.5" cy="119.2" r="0.9" fill="#fff" opacity="0.55"/>
      <circle cx="20.1" cy="19.1" r="0.5" fill="#fff" opacity="0.3"/>
      <circle cx="217.7" cy="136.8" r="0.5" fill="#fff" opacity="0.3"/>
      <circle cx="187.4" cy="145.0" r="0.5" fill="#fff" opacity="0.3"/>
      <circle cx="254.2" cy="223.7" r="0.5" fill="#fff" opacity="0.3"/>
      <circle cx="183.8" cy="168.1" r="0.9" fill="#fff" opacity="0.55"/>
      <circle cx="233.4" cy="92.1" r="0.9" fill="#fff" opacity="0.55"/>
      <circle cx="37.8" cy="133.8" r="0.9" fill="#fff" opacity="0.55"/>
      <circle cx="48.6" cy="156.5" r="0.5" fill="#fff" opacity="0.3"/>
      <circle cx="213.8" cy="244.7" r="0.9" fill="#fff" opacity="0.55"/>
      <circle cx="280.2" cy="100.4" r="0.9" fill="#fff" opacity="0.55"/>
      <circle cx="190.2" cy="185.6" r="0.9" fill="#fff" opacity="0.55"/>
      <circle cx="268.8" cy="302.3" r="0.9" fill="#fff" opacity="0.55"/>
      <circle cx="212.5" cy="19.4" r="0.9" fill="#fff" opacity="0.55"/>
      <circle cx="207.1" cy="317.8" r="0.9" fill="#fff" opacity="0.55"/>
      <circle cx="91.1" cy="123.5" r="0.9" fill="#fff" opacity="0.55"/>
      <circle cx="7.2" cy="147.7" r="0.5" fill="#fff" opacity="0.3"/>
      <circle cx="37.5" cy="18.9" r="0.9" fill="#fff" opacity="0.55"/>
      <circle cx="41.4" cy="79.2" r="0.5" fill="#fff" opacity="0.3"/>
      <circle cx="278.9" cy="25.8" r="0.5" fill="#fff" opacity="0.3"/>
      <circle cx="175.8" cy="282.7" r="0.9" fill="#fff" opacity="0.55"/>
      <circle cx="276.5" cy="89.1" r="0.5" fill="#fff" opacity="0.3"/>
      <circle cx="114.8" cy="282.9" r="0.9" fill="#fff" opacity="0.55"/>
      <circle cx="48.3" cy="56.4" r="0.5" fill="#fff" opacity="0.3"/>
      <circle cx="74.7" cy="155.2" r="0.9" fill="#fff" opacity="0.55"/>
      <circle cx="84.1" cy="1.3" r="0.5" fill="#fff" opacity="0.3"/>
      <circle cx="118.2" cy="181.2" r="0.9" fill="#fff" opacity="0.55"/>
      <circle cx="221.0" cy="165.0" r="0.9" fill="#fff" opacity="0.55"/>
      <circle cx="216.4" cy="17.3" r="0.9" fill="#fff" opacity="0.55"/>
      <circle cx="249.6" cy="279.8" r="0.9" fill="#fff" opacity="0.55"/>
      <circle cx="125.6" cy="127.7" r="0.5" fill="#fff" opacity="0.3"/>
      <circle cx="203.0" cy="19.9" r="0.5" fill="#fff" opacity="0.3"/>
      <circle cx="66.8" cy="51.9" r="0.5" fill="#fff" opacity="0.3"/>
      <circle cx="16.8" cy="0.1" r="0.5" fill="#fff" opacity="0.3"/>
      <circle cx="32.5" cy="116.4" r="0.5" fill="#fff" opacity="0.3"/>
      <circle cx="279.8" cy="196.5" r="0.5" fill="#fff" opacity="0.3"/>
      <circle cx="80.7" cy="111.2" r="0.5" fill="#fff" opacity="0.3"/>
      <circle cx="39.3" cy="271.7" r="0.9" fill="#fff" opacity="0.55"/>
      <circle cx="149.1" cy="154.8" r="0.5" fill="#fff" opacity="0.3"/>
      <circle cx="32.7" cy="109.6" r="0.5" fill="#fff" opacity="0.3"/>
      <circle cx="265.2" cy="51.7" r="0.5" fill="#fff" opacity="0.3"/>
      <circle cx="304.3" cy="169.0" r="0.5" fill="#fff" opacity="0.3"/>
      <circle cx="173.8" cy="8.7" r="0.9" fill="#fff" opacity="0.55"/>
      <circle cx="313.1" cy="276.3" r="0.9" fill="#fff" opacity="0.55"/>
      <circle cx="83.6" cy="117.3" r="0.5" fill="#fff" opacity="0.3"/>
      <circle cx="247.0" cy="170.4" r="0.9" fill="#fff" opacity="0.55"/>
      <circle cx="105.5" cy="71.4" r="0.9" fill="#fff" opacity="0.55"/>
      <circle cx="315.2" cy="272.8" r="0.9" fill="#fff" opacity="0.55"/>
      <circle cx="261.9" cy="236.8" r="0.5" fill="#fff" opacity="0.3"/>
      <circle cx="165.6" cy="113.8" r="0.5" fill="#fff" opacity="0.3"/>
    </g>

    <polyline class="cluster-outline" points="160.0,57.4 139.5,112.1 180.5,112.1 118.9,173.7 201.1,173.7 98.4,228.4 221.6,228.4 30.0,262.6 290.0,262.6 84.7,262.6 235.3,262.6 160.0,262.6 132.6,146.3 187.4,146.3 160.0,57.4"
              fill="none" stroke="currentColor" stroke-opacity="0.32"
              stroke-width="1.1" stroke-linejoin="round" stroke-linecap="round"/>

    <!-- One diffraction-spike marker per jump. -->
    <g class="jump-markers">
      <use href="#star-mark" x="145.0" y="42.4" width="30" height="30"/>
      <use href="#star-mark" x="124.5" y="97.1" width="30" height="30"/>
      <use href="#star-mark" x="165.5" y="97.1" width="30" height="30"/>
      <use href="#star-mark" x="103.9" y="158.7" width="30" height="30"/>
      <use href="#star-mark" x="186.1" y="158.7" width="30" height="30"/>
      <use href="#star-mark" x="83.4" y="213.4" width="30" height="30"/>
      <use href="#star-mark" x="206.6" y="213.4" width="30" height="30"/>
      <use href="#star-mark" x="15.0" y="247.6" width="30" height="30"/>
      <use href="#star-mark" x="275.0" y="247.6" width="30" height="30"/>
      <use href="#star-mark" x="69.7" y="247.6" width="30" height="30"/>
      <use href="#star-mark" x="220.3" y="247.6" width="30" height="30"/>
      <use href="#star-mark" x="145.0" y="247.6" width="30" height="30"/>
      <use href="#star-mark" x="117.6" y="131.3" width="30" height="30"/>
      <use href="#star-mark" x="172.4" y="131.3" width="30" height="30"/>
    </g>
  </svg>
