<svg xmlns="http://www.w3.org/2000/svg" viewBox="0 0 320 320"
       color="oklch(0.82 0.14 100)"
       style="background: radial-gradient(circle at 50% 60%, #07121a 0%, #03080d 75%)">
    <title>Size</title>
    <desc>Size as a constellation of its 8 jumps. One marker per jump.</desc>
    <defs>
      <linearGradient id="ray-grad" x1="0" y1="0" x2="1" y2="0">
        <stop offset="0"    stop-color="transparent"/>
        <stop offset="0.48" stop-color="#fff" stop-opacity="0.58"/>
        <stop offset="0.50" stop-color="#fff" stop-opacity="0.92"/>
        <stop offset="0.52" stop-color="#fff" stop-opacity="0.58"/>
        <stop offset="1"    stop-color="transparent"/>
      </linearGradient>
      <symbol id="star-mark" viewBox="-50 -50 100 100" overflow="visible">
        <g filter="drop-shadow(0 0 1px #fff) drop-shadow(0 0 3px currentColor)" opacity="0.76">
          <g opacity="0.68" style="mix-blend-mode:screen">
            <rect x="-32.00" y="-0.390" width="64.00" height="0.780" rx="0.390" fill="url(#ray-grad)" transform="rotate(-3.00)"/>
            <rect x="-32.00" y="-0.390" width="64.00" height="0.780" rx="0.390" fill="url(#ray-grad)" transform="rotate(63.00)"/>
            <rect x="-32.00" y="-0.390" width="64.00" height="0.780" rx="0.390" fill="url(#ray-grad)" transform="rotate(117.00)"/>
            <rect x="-32.00" y="-0.390" width="64.00" height="0.780" rx="0.390" fill="url(#ray-grad)" transform="rotate(183.00)"/>
            <rect x="-32.00" y="-0.390" width="64.00" height="0.780" rx="0.390" fill="url(#ray-grad)" transform="rotate(237.00)"/>
            <rect x="-32.00" y="-0.390" width="64.00" height="0.780" rx="0.390" fill="url(#ray-grad)" transform="rotate(303.00)"/>
          </g>
          <g opacity="0.32" style="mix-blend-mode:screen">
            <rect x="-18.00" y="-0.125" width="36.00" height="0.250" rx="0.125" fill="url(#ray-grad)" transform="rotate(27.00)"/>
            <rect x="-18.00" y="-0.125" width="36.00" height="0.250" rx="0.125" fill="url(#ray-grad)" transform="rotate(93.00)"/>
            <rect x="-18.00" y="-0.125" width="36.00" height="0.250" rx="0.125" fill="url(#ray-grad)" transform="rotate(147.00)"/>
            <rect x="-18.00" y="-0.125" width="36.00" height="0.250" rx="0.125" fill="url(#ray-grad)" transform="rotate(213.00)"/>
            <rect x="-18.00" y="-0.125" width="36.00" height="0.250" rx="0.125" fill="url(#ray-grad)" transform="rotate(267.00)"/>
            <rect x="-18.00" y="-0.125" width="36.00" height="0.250" rx="0.125" fill="url(#ray-grad)" transform="rotate(333.00)"/>
          </g>
          <circle r="2.2" fill="currentColor" opacity="0.16"/>
          <circle r="1.4" fill="#fff"/>
        </g>
      </symbol>
    </defs>

    <!-- Background starfield (deterministic seed-9 LCG, 60 dots). -->
    <g class="starfield">
      <circle cx="148.2" cy="119.5" r="0.5" fill="#fff" opacity="0.3"/>
      <circle cx="277.3" cy="2.1" r="0.9" fill="#fff" opacity="0.55"/>
      <circle cx="287.5" cy="25.9" r="0.9" fill="#fff" opacity="0.55"/>
      <circle cx="197.3" cy="13.1" r="0.5" fill="#fff" opacity="0.3"/>
      <circle cx="225.1" cy="144.6" r="0.9" fill="#fff" opacity="0.55"/>
      <circle cx="50.3" cy="76.2" r="0.5" fill="#fff" opacity="0.3"/>
      <circle cx="162.0" cy="295.6" r="0.9" fill="#fff" opacity="0.55"/>
      <circle cx="247.7" cy="122.8" r="0.9" fill="#fff" opacity="0.55"/>
      <circle cx="32.5" cy="93.2" r="0.9" fill="#fff" opacity="0.55"/>
      <circle cx="232.2" cy="135.0" r="0.5" fill="#fff" opacity="0.3"/>
      <circle cx="85.4" cy="67.2" r="0.5" fill="#fff" opacity="0.3"/>
      <circle cx="259.0" cy="63.8" r="0.9" fill="#fff" opacity="0.55"/>
      <circle cx="281.4" cy="17.5" r="0.5" fill="#fff" opacity="0.3"/>
      <circle cx="157.3" cy="7.5" r="0.5" fill="#fff" opacity="0.3"/>
      <circle cx="290.1" cy="35.9" r="0.9" fill="#fff" opacity="0.55"/>
      <circle cx="38.8" cy="185.2" r="0.9" fill="#fff" opacity="0.55"/>
      <circle cx="65.0" cy="2.6" r="0.5" fill="#fff" opacity="0.3"/>
      <circle cx="172.7" cy="5.6" r="0.5" fill="#fff" opacity="0.3"/>
      <circle cx="159.0" cy="294.7" r="0.5" fill="#fff" opacity="0.3"/>
      <circle cx="127.4" cy="204.4" r="0.5" fill="#fff" opacity="0.3"/>
      <circle cx="185.5" cy="55.2" r="0.9" fill="#fff" opacity="0.55"/>
      <circle cx="306.7" cy="17.3" r="0.9" fill="#fff" opacity="0.55"/>
      <circle cx="194.0" cy="47.8" r="0.5" fill="#fff" opacity="0.3"/>
      <circle cx="318.4" cy="319.3" r="0.5" fill="#fff" opacity="0.3"/>
      <circle cx="225.7" cy="304.3" r="0.5" fill="#fff" opacity="0.3"/>
      <circle cx="195.6" cy="13.8" r="0.5" fill="#fff" opacity="0.3"/>
      <circle cx="215.7" cy="188.9" r="0.9" fill="#fff" opacity="0.55"/>
      <circle cx="27.8" cy="111.1" r="0.9" fill="#fff" opacity="0.55"/>
      <circle cx="186.9" cy="144.4" r="0.5" fill="#fff" opacity="0.3"/>
      <circle cx="315.5" cy="183.8" r="0.5" fill="#fff" opacity="0.3"/>
      <circle cx="255.8" cy="105.2" r="0.5" fill="#fff" opacity="0.3"/>
      <circle cx="68.3" cy="142.1" r="0.5" fill="#fff" opacity="0.3"/>
      <circle cx="28.4" cy="201.4" r="0.5" fill="#fff" opacity="0.3"/>
      <circle cx="250.9" cy="8.1" r="0.9" fill="#fff" opacity="0.55"/>
      <circle cx="258.4" cy="159.1" r="0.9" fill="#fff" opacity="0.55"/>
      <circle cx="79.4" cy="236.0" r="0.5" fill="#fff" opacity="0.3"/>
      <circle cx="73.9" cy="308.5" r="0.5" fill="#fff" opacity="0.3"/>
      <circle cx="119.4" cy="275.2" r="0.5" fill="#fff" opacity="0.3"/>
      <circle cx="213.6" cy="54.7" r="0.9" fill="#fff" opacity="0.55"/>
      <circle cx="82.9" cy="16.2" r="0.9" fill="#fff" opacity="0.55"/>
      <circle cx="55.3" cy="302.9" r="0.9" fill="#fff" opacity="0.55"/>
      <circle cx="194.1" cy="3.8" r="0.5" fill="#fff" opacity="0.3"/>
      <circle cx="66.8" cy="124.4" r="0.9" fill="#fff" opacity="0.55"/>
      <circle cx="309.3" cy="113.4" r="0.5" fill="#fff" opacity="0.3"/>
      <circle cx="179.8" cy="43.9" r="0.5" fill="#fff" opacity="0.3"/>
      <circle cx="177.9" cy="222.7" r="0.5" fill="#fff" opacity="0.3"/>
      <circle cx="144.4" cy="225.2" r="0.9" fill="#fff" opacity="0.55"/>
      <circle cx="122.6" cy="283.9" r="0.5" fill="#fff" opacity="0.3"/>
      <circle cx="228.9" cy="246.9" r="0.9" fill="#fff" opacity="0.55"/>
      <circle cx="158.2" cy="31.8" r="0.5" fill="#fff" opacity="0.3"/>
      <circle cx="169.2" cy="55.5" r="0.9" fill="#fff" opacity="0.55"/>
      <circle cx="27.0" cy="249.6" r="0.5" fill="#fff" opacity="0.3"/>
      <circle cx="4.2" cy="56.3" r="0.9" fill="#fff" opacity="0.55"/>
      <circle cx="179.0" cy="124.3" r="0.5" fill="#fff" opacity="0.3"/>
      <circle cx="154.3" cy="302.9" r="0.9" fill="#fff" opacity="0.55"/>
      <circle cx="301.2" cy="9.2" r="0.9" fill="#fff" opacity="0.55"/>
      <circle cx="284.5" cy="174.2" r="0.9" fill="#fff" opacity="0.55"/>
      <circle cx="171.9" cy="291.1" r="0.5" fill="#fff" opacity="0.3"/>
      <circle cx="205.7" cy="173.5" r="0.5" fill="#fff" opacity="0.3"/>
      <circle cx="232.0" cy="230.6" r="0.5" fill="#fff" opacity="0.3"/>
    </g>

    <polyline class="cluster-outline" points="160.0,38.1 111.2,103.1 208.8,103.1 70.6,160.0 249.4,160.0 30.0,225.0 290.0,225.0 70.6,281.9 160.0,38.1"
              fill="none" stroke="currentColor" stroke-opacity="0.32"
              stroke-width="1.1" stroke-linejoin="round" stroke-linecap="round"/>

    <!-- One diffraction-spike marker per jump. -->
    <g class="jump-markers">
      <use href="#star-mark" x="145.0" y="23.1" width="30" height="30"/>
      <use href="#star-mark" x="96.2" y="88.1" width="30" height="30"/>
      <use href="#star-mark" x="193.8" y="88.1" width="30" height="30"/>
      <use href="#star-mark" x="55.6" y="145.0" width="30" height="30"/>
      <use href="#star-mark" x="234.4" y="145.0" width="30" height="30"/>
      <use href="#star-mark" x="15.0" y="210.0" width="30" height="30"/>
      <use href="#star-mark" x="275.0" y="210.0" width="30" height="30"/>
      <use href="#star-mark" x="55.6" y="266.9" width="30" height="30"/>
    </g>
  </svg>
