<svg xmlns="http://www.w3.org/2000/svg" viewBox="0 0 320 320"
       color="oklch(0.82 0.14 30)"
       style="background: radial-gradient(circle at 50% 60%, #07121a 0%, #03080d 75%)">
    <title>Vehicles</title>
    <desc>Vehicles as a constellation of its 13 jumps. One marker per jump.</desc>
    <defs>
      <linearGradient id="ray-grad" x1="0" y1="0" x2="1" y2="0">
        <stop offset="0"    stop-color="transparent"/>
        <stop offset="0.48" stop-color="#fff" stop-opacity="0.58"/>
        <stop offset="0.50" stop-color="#fff" stop-opacity="0.92"/>
        <stop offset="0.52" stop-color="#fff" stop-opacity="0.58"/>
        <stop offset="1"    stop-color="transparent"/>
      </linearGradient>
      <symbol id="star-mark" viewBox="-50 -50 100 100" overflow="visible">
        <g filter="drop-shadow(0 0 1px #fff) drop-shadow(0 0 3px currentColor)" opacity="0.76">
          <g opacity="0.68" style="mix-blend-mode:screen">
            <rect x="-32.00" y="-0.390" width="64.00" height="0.780" rx="0.390" fill="url(#ray-grad)" transform="rotate(-3.00)"/>
            <rect x="-32.00" y="-0.390" width="64.00" height="0.780" rx="0.390" fill="url(#ray-grad)" transform="rotate(63.00)"/>
            <rect x="-32.00" y="-0.390" width="64.00" height="0.780" rx="0.390" fill="url(#ray-grad)" transform="rotate(117.00)"/>
            <rect x="-32.00" y="-0.390" width="64.00" height="0.780" rx="0.390" fill="url(#ray-grad)" transform="rotate(183.00)"/>
            <rect x="-32.00" y="-0.390" width="64.00" height="0.780" rx="0.390" fill="url(#ray-grad)" transform="rotate(237.00)"/>
            <rect x="-32.00" y="-0.390" width="64.00" height="0.780" rx="0.390" fill="url(#ray-grad)" transform="rotate(303.00)"/>
          </g>
          <g opacity="0.32" style="mix-blend-mode:screen">
            <rect x="-18.00" y="-0.125" width="36.00" height="0.250" rx="0.125" fill="url(#ray-grad)" transform="rotate(27.00)"/>
            <rect x="-18.00" y="-0.125" width="36.00" height="0.250" rx="0.125" fill="url(#ray-grad)" transform="rotate(93.00)"/>
            <rect x="-18.00" y="-0.125" width="36.00" height="0.250" rx="0.125" fill="url(#ray-grad)" transform="rotate(147.00)"/>
            <rect x="-18.00" y="-0.125" width="36.00" height="0.250" rx="0.125" fill="url(#ray-grad)" transform="rotate(213.00)"/>
            <rect x="-18.00" y="-0.125" width="36.00" height="0.250" rx="0.125" fill="url(#ray-grad)" transform="rotate(267.00)"/>
            <rect x="-18.00" y="-0.125" width="36.00" height="0.250" rx="0.125" fill="url(#ray-grad)" transform="rotate(333.00)"/>
          </g>
          <circle r="2.2" fill="currentColor" opacity="0.16"/>
          <circle r="1.4" fill="#fff"/>
        </g>
      </symbol>
    </defs>

    <!-- Background starfield (deterministic seed-3 LCG, 60 dots). -->
    <g class="starfield">
      <circle cx="76.1" cy="174.2" r="0.5" fill="#fff" opacity="0.3"/>
      <circle cx="193.3" cy="200.2" r="0.5" fill="#fff" opacity="0.3"/>
      <circle cx="4.2" cy="268.0" r="0.5" fill="#fff" opacity="0.3"/>
      <circle cx="75.0" cy="318.6" r="0.9" fill="#fff" opacity="0.55"/>
      <circle cx="267.7" cy="152.4" r="0.9" fill="#fff" opacity="0.55"/>
      <circle cx="48.2" cy="203.2" r="0.9" fill="#fff" opacity="0.55"/>
      <circle cx="167.4" cy="237.2" r="0.9" fill="#fff" opacity="0.55"/>
      <circle cx="20.5" cy="242.6" r="0.9" fill="#fff" opacity="0.55"/>
      <circle cx="96.4" cy="9.9" r="0.9" fill="#fff" opacity="0.55"/>
      <circle cx="151.3" cy="230.0" r="0.9" fill="#fff" opacity="0.55"/>
      <circle cx="228.5" cy="294.8" r="0.5" fill="#fff" opacity="0.3"/>
      <circle cx="256.3" cy="142.3" r="0.9" fill="#fff" opacity="0.55"/>
      <circle cx="281.2" cy="31.2" r="0.5" fill="#fff" opacity="0.3"/>
      <circle cx="69.4" cy="309.0" r="0.5" fill="#fff" opacity="0.3"/>
      <circle cx="200.5" cy="96.3" r="0.9" fill="#fff" opacity="0.55"/>
      <circle cx="123.5" cy="112.3" r="0.9" fill="#fff" opacity="0.55"/>
      <circle cx="187.0" cy="289.3" r="0.9" fill="#fff" opacity="0.55"/>
      <circle cx="297.3" cy="274.0" r="0.9" fill="#fff" opacity="0.55"/>
      <circle cx="214.8" cy="52.2" r="0.9" fill="#fff" opacity="0.55"/>
      <circle cx="308.7" cy="289.5" r="0.9" fill="#fff" opacity="0.55"/>
      <circle cx="228.4" cy="67.6" r="0.9" fill="#fff" opacity="0.55"/>
      <circle cx="183.5" cy="91.2" r="0.5" fill="#fff" opacity="0.3"/>
      <circle cx="273.3" cy="316.7" r="0.5" fill="#fff" opacity="0.3"/>
      <circle cx="256.2" cy="131.3" r="0.5" fill="#fff" opacity="0.3"/>
      <circle cx="94.0" cy="246.0" r="0.9" fill="#fff" opacity="0.55"/>
      <circle cx="14.1" cy="196.7" r="0.5" fill="#fff" opacity="0.3"/>
      <circle cx="229.9" cy="105.9" r="0.9" fill="#fff" opacity="0.55"/>
      <circle cx="313.8" cy="161.7" r="0.9" fill="#fff" opacity="0.55"/>
      <circle cx="99.1" cy="24.6" r="0.9" fill="#fff" opacity="0.55"/>
      <circle cx="10.0" cy="63.2" r="0.5" fill="#fff" opacity="0.3"/>
      <circle cx="195.3" cy="50.0" r="0.5" fill="#fff" opacity="0.3"/>
      <circle cx="277.7" cy="100.4" r="0.9" fill="#fff" opacity="0.55"/>
      <circle cx="286.9" cy="120.9" r="0.9" fill="#fff" opacity="0.55"/>
      <circle cx="166.4" cy="206.0" r="0.9" fill="#fff" opacity="0.55"/>
      <circle cx="179.0" cy="198.4" r="0.9" fill="#fff" opacity="0.55"/>
      <circle cx="162.2" cy="138.0" r="0.9" fill="#fff" opacity="0.55"/>
      <circle cx="76.0" cy="96.3" r="0.9" fill="#fff" opacity="0.55"/>
      <circle cx="166.8" cy="175.5" r="0.5" fill="#fff" opacity="0.3"/>
      <circle cx="132.9" cy="185.6" r="0.5" fill="#fff" opacity="0.3"/>
      <circle cx="197.1" cy="202.3" r="0.5" fill="#fff" opacity="0.3"/>
      <circle cx="200.7" cy="149.2" r="0.9" fill="#fff" opacity="0.55"/>
      <circle cx="112.8" cy="226.2" r="0.9" fill="#fff" opacity="0.55"/>
      <circle cx="7.1" cy="19.4" r="0.9" fill="#fff" opacity="0.55"/>
      <circle cx="308.3" cy="80.4" r="0.9" fill="#fff" opacity="0.55"/>
      <circle cx="189.7" cy="102.4" r="0.5" fill="#fff" opacity="0.3"/>
      <circle cx="100.1" cy="118.1" r="0.9" fill="#fff" opacity="0.55"/>
      <circle cx="96.1" cy="120.7" r="0.9" fill="#fff" opacity="0.55"/>
      <circle cx="8.6" cy="182.2" r="0.9" fill="#fff" opacity="0.55"/>
      <circle cx="99.2" cy="71.2" r="0.9" fill="#fff" opacity="0.55"/>
      <circle cx="76.4" cy="60.0" r="0.5" fill="#fff" opacity="0.3"/>
      <circle cx="223.4" cy="32.6" r="0.5" fill="#fff" opacity="0.3"/>
      <circle cx="106.8" cy="266.7" r="0.5" fill="#fff" opacity="0.3"/>
      <circle cx="273.8" cy="54.2" r="0.5" fill="#fff" opacity="0.3"/>
      <circle cx="208.1" cy="283.2" r="0.9" fill="#fff" opacity="0.55"/>
      <circle cx="72.0" cy="38.7" r="0.9" fill="#fff" opacity="0.55"/>
      <circle cx="61.1" cy="258.2" r="0.9" fill="#fff" opacity="0.55"/>
      <circle cx="58.7" cy="89.1" r="0.9" fill="#fff" opacity="0.55"/>
      <circle cx="205.4" cy="258.0" r="0.5" fill="#fff" opacity="0.3"/>
      <circle cx="41.5" cy="93.4" r="0.9" fill="#fff" opacity="0.55"/>
      <circle cx="86.8" cy="110.8" r="0.5" fill="#fff" opacity="0.3"/>
    </g>

    <polyline class="cluster-outline" points="30.0,194.2 30.0,160.0 64.2,139.5 118.9,125.8 146.3,77.9 201.1,77.9 235.3,125.8 276.3,139.5 290.0,160.0 290.0,194.2 84.7,242.1 235.3,242.1 118.9,180.5 30.0,194.2"
              fill="none" stroke="currentColor" stroke-opacity="0.32"
              stroke-width="1.1" stroke-linejoin="round" stroke-linecap="round"/>

    <!-- One diffraction-spike marker per jump. -->
    <g class="jump-markers">
      <use href="#star-mark" x="15.0" y="179.2" width="30" height="30"/>
      <use href="#star-mark" x="15.0" y="145.0" width="30" height="30"/>
      <use href="#star-mark" x="49.2" y="124.5" width="30" height="30"/>
      <use href="#star-mark" x="103.9" y="110.8" width="30" height="30"/>
      <use href="#star-mark" x="131.3" y="62.9" width="30" height="30"/>
      <use href="#star-mark" x="186.1" y="62.9" width="30" height="30"/>
      <use href="#star-mark" x="220.3" y="110.8" width="30" height="30"/>
      <use href="#star-mark" x="261.3" y="124.5" width="30" height="30"/>
      <use href="#star-mark" x="275.0" y="145.0" width="30" height="30"/>
      <use href="#star-mark" x="275.0" y="179.2" width="30" height="30"/>
      <use href="#star-mark" x="69.7" y="227.1" width="30" height="30"/>
      <use href="#star-mark" x="220.3" y="227.1" width="30" height="30"/>
      <use href="#star-mark" x="103.9" y="165.5" width="30" height="30"/>
    </g>
  </svg>
