<svg xmlns="http://www.w3.org/2000/svg" viewBox="0 0 320 320"
       color="oklch(0.82 0.14 170)"
       style="background: radial-gradient(circle at 50% 60%, #07121a 0%, #03080d 75%)">
    <title>Alchemy</title>
    <desc>Alchemy as a constellation of its 11 jumps. One marker per jump.</desc>
    <defs>
      <linearGradient id="ray-grad" x1="0" y1="0" x2="1" y2="0">
        <stop offset="0"    stop-color="transparent"/>
        <stop offset="0.48" stop-color="#fff" stop-opacity="0.58"/>
        <stop offset="0.50" stop-color="#fff" stop-opacity="0.92"/>
        <stop offset="0.52" stop-color="#fff" stop-opacity="0.58"/>
        <stop offset="1"    stop-color="transparent"/>
      </linearGradient>
      <symbol id="star-mark" viewBox="-50 -50 100 100" overflow="visible">
        <g filter="drop-shadow(0 0 1px #fff) drop-shadow(0 0 3px currentColor)" opacity="0.76">
          <g opacity="0.68" style="mix-blend-mode:screen">
            <rect x="-32.00" y="-0.390" width="64.00" height="0.780" rx="0.390" fill="url(#ray-grad)" transform="rotate(-3.00)"/>
            <rect x="-32.00" y="-0.390" width="64.00" height="0.780" rx="0.390" fill="url(#ray-grad)" transform="rotate(63.00)"/>
            <rect x="-32.00" y="-0.390" width="64.00" height="0.780" rx="0.390" fill="url(#ray-grad)" transform="rotate(117.00)"/>
            <rect x="-32.00" y="-0.390" width="64.00" height="0.780" rx="0.390" fill="url(#ray-grad)" transform="rotate(183.00)"/>
            <rect x="-32.00" y="-0.390" width="64.00" height="0.780" rx="0.390" fill="url(#ray-grad)" transform="rotate(237.00)"/>
            <rect x="-32.00" y="-0.390" width="64.00" height="0.780" rx="0.390" fill="url(#ray-grad)" transform="rotate(303.00)"/>
          </g>
          <g opacity="0.32" style="mix-blend-mode:screen">
            <rect x="-18.00" y="-0.125" width="36.00" height="0.250" rx="0.125" fill="url(#ray-grad)" transform="rotate(27.00)"/>
            <rect x="-18.00" y="-0.125" width="36.00" height="0.250" rx="0.125" fill="url(#ray-grad)" transform="rotate(93.00)"/>
            <rect x="-18.00" y="-0.125" width="36.00" height="0.250" rx="0.125" fill="url(#ray-grad)" transform="rotate(147.00)"/>
            <rect x="-18.00" y="-0.125" width="36.00" height="0.250" rx="0.125" fill="url(#ray-grad)" transform="rotate(213.00)"/>
            <rect x="-18.00" y="-0.125" width="36.00" height="0.250" rx="0.125" fill="url(#ray-grad)" transform="rotate(267.00)"/>
            <rect x="-18.00" y="-0.125" width="36.00" height="0.250" rx="0.125" fill="url(#ray-grad)" transform="rotate(333.00)"/>
          </g>
          <circle r="2.2" fill="currentColor" opacity="0.16"/>
          <circle r="1.4" fill="#fff"/>
        </g>
      </symbol>
    </defs>

    <!-- Background starfield (deterministic seed-12 LCG, 60 dots). -->
    <g class="starfield">
      <circle cx="151.9" cy="210.4" r="0.9" fill="#fff" opacity="0.55"/>
      <circle cx="45.6" cy="3.5" r="0.5" fill="#fff" opacity="0.3"/>
      <circle cx="87.7" cy="259.3" r="0.9" fill="#fff" opacity="0.55"/>
      <circle cx="192.5" cy="178.6" r="0.9" fill="#fff" opacity="0.55"/>
      <circle cx="46.5" cy="140.8" r="0.5" fill="#fff" opacity="0.3"/>
      <circle cx="289.9" cy="18.8" r="0.9" fill="#fff" opacity="0.55"/>
      <circle cx="23.9" cy="219.8" r="0.5" fill="#fff" opacity="0.3"/>
      <circle cx="129.5" cy="269.6" r="0.5" fill="#fff" opacity="0.3"/>
      <circle cx="19.5" cy="292.8" r="0.9" fill="#fff" opacity="0.55"/>
      <circle cx="29.1" cy="315.9" r="0.9" fill="#fff" opacity="0.55"/>
      <circle cx="36.0" cy="135.4" r="0.5" fill="#fff" opacity="0.3"/>
      <circle cx="100.0" cy="198.9" r="0.5" fill="#fff" opacity="0.3"/>
      <circle cx="223.0" cy="16.4" r="0.5" fill="#fff" opacity="0.3"/>
      <circle cx="261.0" cy="128.2" r="0.5" fill="#fff" opacity="0.3"/>
      <circle cx="190.7" cy="152.6" r="0.5" fill="#fff" opacity="0.3"/>
      <circle cx="9.8" cy="232.4" r="0.9" fill="#fff" opacity="0.55"/>
      <circle cx="312.4" cy="212.4" r="0.5" fill="#fff" opacity="0.3"/>
      <circle cx="116.2" cy="220.8" r="0.9" fill="#fff" opacity="0.55"/>
      <circle cx="36.4" cy="75.2" r="0.5" fill="#fff" opacity="0.3"/>
      <circle cx="163.6" cy="259.2" r="0.9" fill="#fff" opacity="0.55"/>
      <circle cx="9.0" cy="263.2" r="0.5" fill="#fff" opacity="0.3"/>
      <circle cx="166.1" cy="71.1" r="0.5" fill="#fff" opacity="0.3"/>
      <circle cx="124.2" cy="247.0" r="0.5" fill="#fff" opacity="0.3"/>
      <circle cx="176.0" cy="57.0" r="0.9" fill="#fff" opacity="0.55"/>
      <circle cx="11.8" cy="88.5" r="0.5" fill="#fff" opacity="0.3"/>
      <circle cx="203.8" cy="16.7" r="0.9" fill="#fff" opacity="0.55"/>
      <circle cx="66.8" cy="90.2" r="0.9" fill="#fff" opacity="0.55"/>
      <circle cx="306.8" cy="153.9" r="0.9" fill="#fff" opacity="0.55"/>
      <circle cx="53.6" cy="295.8" r="0.5" fill="#fff" opacity="0.3"/>
      <circle cx="60.6" cy="239.5" r="0.9" fill="#fff" opacity="0.55"/>
      <circle cx="2.1" cy="85.8" r="0.9" fill="#fff" opacity="0.55"/>
      <circle cx="109.4" cy="77.3" r="0.5" fill="#fff" opacity="0.3"/>
      <circle cx="12.8" cy="198.1" r="0.9" fill="#fff" opacity="0.55"/>
      <circle cx="319.5" cy="161.2" r="0.5" fill="#fff" opacity="0.3"/>
      <circle cx="103.2" cy="252.0" r="0.9" fill="#fff" opacity="0.55"/>
      <circle cx="204.6" cy="73.4" r="0.9" fill="#fff" opacity="0.55"/>
      <circle cx="152.8" cy="200.6" r="0.5" fill="#fff" opacity="0.3"/>
      <circle cx="302.9" cy="286.2" r="0.5" fill="#fff" opacity="0.3"/>
      <circle cx="93.2" cy="279.4" r="0.5" fill="#fff" opacity="0.3"/>
      <circle cx="302.0" cy="164.9" r="0.9" fill="#fff" opacity="0.55"/>
      <circle cx="225.5" cy="68.5" r="0.5" fill="#fff" opacity="0.3"/>
      <circle cx="81.6" cy="218.7" r="0.9" fill="#fff" opacity="0.55"/>
      <circle cx="42.2" cy="283.7" r="0.5" fill="#fff" opacity="0.3"/>
      <circle cx="77.2" cy="139.3" r="0.9" fill="#fff" opacity="0.55"/>
      <circle cx="179.2" cy="199.9" r="0.9" fill="#fff" opacity="0.55"/>
      <circle cx="307.8" cy="243.3" r="0.5" fill="#fff" opacity="0.3"/>
      <circle cx="188.3" cy="288.3" r="0.9" fill="#fff" opacity="0.55"/>
      <circle cx="185.7" cy="111.2" r="0.5" fill="#fff" opacity="0.3"/>
      <circle cx="235.5" cy="180.3" r="0.5" fill="#fff" opacity="0.3"/>
      <circle cx="227.2" cy="289.2" r="0.9" fill="#fff" opacity="0.55"/>
      <circle cx="287.2" cy="291.4" r="0.9" fill="#fff" opacity="0.55"/>
      <circle cx="252.5" cy="121.4" r="0.5" fill="#fff" opacity="0.3"/>
      <circle cx="113.0" cy="99.9" r="0.9" fill="#fff" opacity="0.55"/>
      <circle cx="220.5" cy="173.3" r="0.9" fill="#fff" opacity="0.55"/>
      <circle cx="39.9" cy="171.0" r="0.9" fill="#fff" opacity="0.55"/>
      <circle cx="126.1" cy="78.6" r="0.5" fill="#fff" opacity="0.3"/>
      <circle cx="103.5" cy="219.3" r="0.5" fill="#fff" opacity="0.3"/>
      <circle cx="29.0" cy="100.0" r="0.9" fill="#fff" opacity="0.55"/>
      <circle cx="243.1" cy="211.0" r="0.9" fill="#fff" opacity="0.55"/>
      <circle cx="117.0" cy="9.5" r="0.9" fill="#fff" opacity="0.55"/>
    </g>

    <polyline class="cluster-outline" points="138.3,30.0 181.7,30.0 138.3,87.8 181.7,87.8 95.0,109.4 225.0,109.4 37.2,160.0 282.8,160.0 37.2,232.2 282.8,232.2 95.0,290.0 138.3,30.0"
              fill="none" stroke="currentColor" stroke-opacity="0.32"
              stroke-width="1.1" stroke-linejoin="round" stroke-linecap="round"/>

    <!-- One diffraction-spike marker per jump. -->
    <g class="jump-markers">
      <use href="#star-mark" x="123.3" y="15.0" width="30" height="30"/>
      <use href="#star-mark" x="166.7" y="15.0" width="30" height="30"/>
      <use href="#star-mark" x="123.3" y="72.8" width="30" height="30"/>
      <use href="#star-mark" x="166.7" y="72.8" width="30" height="30"/>
      <use href="#star-mark" x="80.0" y="94.4" width="30" height="30"/>
      <use href="#star-mark" x="210.0" y="94.4" width="30" height="30"/>
      <use href="#star-mark" x="22.2" y="145.0" width="30" height="30"/>
      <use href="#star-mark" x="267.8" y="145.0" width="30" height="30"/>
      <use href="#star-mark" x="22.2" y="217.2" width="30" height="30"/>
      <use href="#star-mark" x="267.8" y="217.2" width="30" height="30"/>
      <use href="#star-mark" x="80.0" y="275.0" width="30" height="30"/>
    </g>
  </svg>
